<svg xmlns="http://www.w3.org/2000/svg" version="1.1" xmlns:xlink="http://www.w3.org/1999/xlink" xmlns:svgjs="http://svgjs.dev/svgjs" width="1500" height="939" viewBox="0 0 1500 939"><g transform="matrix(1,0,0,1,-0.9090909090908781,-1.5145161290323017)"><svg viewBox="0 0 396 248" data-background-color="#000000" preserveAspectRatio="xMidYMid meet" height="939" width="1500" xmlns="http://www.w3.org/2000/svg" xmlns:xlink="http://www.w3.org/1999/xlink"><g id="tight-bounds" transform="matrix(1,0,0,1,0.2400000000000091,0.4000000000000057)"><svg viewBox="0 0 395.52 247.2" height="247.2" width="395.52"><rect width="395.52" height="247.2" fill="url(#8477ce52-bf2a-439e-848f-12c03232d335)" mask="url(#dd3d0640-da41-4514-be7e-dec79b1e0416)" data-fill-palette-color="tertiary"></rect><g><svg></svg></g><g><svg viewBox="0 0 395.52 247.2" height="247.2" width="395.52"><g transform="matrix(1,0,0,1,75.54432,77.24612182395565)"><svg viewBox="0 0 244.43135999999998 92.7077563520887" height="92.7077563520887" width="244.43135999999998"><g><svg viewBox="0 0 244.43135999999998 92.7077563520887" height="92.7077563520887" width="244.43135999999998"><g><svg viewBox="0 0 244.43135999999998 92.7077563520887" height="92.7077563520887" width="244.43135999999998"><g><svg viewBox="0 0 244.43135999999998 92.7077563520887" height="92.7077563520887" width="244.43135999999998"><g id="textblocktransform"><svg viewBox="0 0 244.43135999999998 92.7077563520887" height="92.7077563520887" width="244.43135999999998" id="textblock"><g><svg viewBox="0 0 244.43135999999998 60.1893659098177" height="60.1893659098177" width="244.43135999999998"><g transform="matrix(1,0,0,1,0,0)"><svg width="244.43135999999998" viewBox="2.55 -38 156.33999999999997 38.50000000000001" height="60.1893659098177" data-palette-color="url(#7554172d-4288-4e5f-96a5-b3d6bf4f67de)"></svg></g></svg></g><g transform="matrix(1,0,0,1,0,74.39863065634383)"><svg viewBox="0 0 244.43135999999998 18.30912569574488" height="18.30912569574488" width="244.43135999999998"><g transform="matrix(1,0,0,1,0,0)"><svg width="244.43135999999998" viewBox="0.7 -39.65 539.29 40.4" height="18.30912569574488" data-palette-color="url(#a41715a2-0f36-42f4-a727-db7ca5e72a2d)"></svg></g></svg></g></svg></g></svg></g></svg></g></svg></g></svg></g><g><path d="M0 123.6c0-68.262 55.338-123.6 123.6-123.6 49.114 0 91.537 28.646 111.473 70.141l-3.02 0c-19.729-39.95-60.883-67.428-108.453-67.427-66.764 0-120.886 54.123-120.886 120.886 0 66.764 54.123 120.886 120.886 120.886 47.571 0 88.724-27.478 108.453-67.427h3.02c-19.936 41.495-62.359 70.141-111.473 70.141-68.262 0-123.6-55.338-123.6-123.6z" fill="url(#8477ce52-bf2a-439e-848f-12c03232d335)" stroke="transparent" data-fill-palette-color="tertiary"></path></g></svg></g><defs></defs><mask id="a341180b-4723-4a00-86f0-7f771568f7a6"><g id="SvgjsG4287"><svg viewBox="0 0 395.52 247.2" height="247.2" width="395.52"><g><svg></svg></g><g><svg viewBox="0 0 395.52 247.2" height="247.2" width="395.52"><g transform="matrix(1,0,0,1,75.54432,77.24612182395565)"><svg viewBox="0 0 244.43135999999998 92.7077563520887" height="92.7077563520887" width="244.43135999999998"><g><svg viewBox="0 0 244.43135999999998 92.7077563520887" height="92.7077563520887" width="244.43135999999998"><g><svg viewBox="0 0 244.43135999999998 92.7077563520887" height="92.7077563520887" width="244.43135999999998"><g><svg viewBox="0 0 244.43135999999998 92.7077563520887" height="92.7077563520887" width="244.43135999999998"><g id="SvgjsG4286"><svg viewBox="0 0 244.43135999999998 92.7077563520887" height="92.7077563520887" width="244.43135999999998" id="SvgjsSvg4285"><g><svg viewBox="0 0 244.43135999999998 60.1893659098177" height="60.1893659098177" width="244.43135999999998"><g transform="matrix(1,0,0,1,0,0)"><svg width="244.43135999999998" viewBox="2.55 -38 156.33999999999997 38.50000000000001" height="60.1893659098177" data-palette-color="url(#7554172d-4288-4e5f-96a5-b3d6bf4f67de)"><path d="M25.1-9.55L25.1-9.55Q25.1-6.35 23.55-4.13 22-1.9 19.13-0.7 16.25 0.5 12.35 0.5L12.35 0.5Q10.35 0.5 8.53 0.3 6.7 0.1 5.2-0.28 3.7-0.65 2.55-1.2L2.55-1.2 2.55-5.5Q4.35-4.7 7.03-4.05 9.7-3.4 12.55-3.4L12.55-3.4Q15.2-3.4 17-4.1 18.8-4.8 19.7-6.1 20.6-7.4 20.6-9.15L20.6-9.15Q20.6-10.9 19.85-12.1 19.1-13.3 17.28-14.33 15.45-15.35 12.2-16.5L12.2-16.5Q9.9-17.35 8.18-18.32 6.45-19.3 5.3-20.55 4.15-21.8 3.58-23.4 3-25 3-27.1L3-27.1Q3-29.95 4.45-31.98 5.9-34 8.47-35.1 11.05-36.2 14.4-36.2L14.4-36.2Q17.35-36.2 19.8-35.65 22.25-35.1 24.25-34.2L24.25-34.2 22.85-30.35Q21-31.15 18.82-31.7 16.65-32.25 14.3-32.25L14.3-32.25Q12.05-32.25 10.55-31.6 9.05-30.95 8.3-29.78 7.55-28.6 7.55-27.05L7.55-27.05Q7.55-25.25 8.3-24.05 9.05-22.85 10.75-21.9 12.45-20.95 15.35-19.85L15.35-19.85Q18.5-18.7 20.68-17.38 22.85-16.05 23.98-14.2 25.1-12.35 25.1-9.55ZM55-13.45L55-13.45Q55-10.1 54.12-7.53 53.25-4.95 51.62-3.15 50-1.35 47.67-0.43 45.35 0.5 42.5 0.5L42.5 0.5Q39.85 0.5 37.6-0.43 35.35-1.35 33.7-3.15 32.05-4.95 31.12-7.53 30.2-10.1 30.2-13.45L30.2-13.45Q30.2-17.9 31.7-20.98 33.2-24.05 36-25.68 38.8-27.3 42.65-27.3L42.65-27.3Q46.3-27.3 49.07-25.68 51.85-24.05 53.42-20.98 55-17.9 55-13.45ZM34.75-13.45L34.75-13.45Q34.75-10.3 35.57-7.98 36.4-5.65 38.15-4.4 39.9-3.15 42.6-3.15L42.6-3.15Q45.3-3.15 47.05-4.4 48.8-5.65 49.62-7.98 50.45-10.3 50.45-13.45L50.45-13.45Q50.45-16.65 49.6-18.9 48.75-21.15 47.02-22.38 45.3-23.6 42.55-23.6L42.55-23.6Q38.45-23.6 36.6-20.9 34.75-18.2 34.75-13.45ZM66.35-38L66.35 0 61.95 0 61.95-38 66.35-38ZM75.44-35.7L85.64-35.7Q92.34-35.7 95.77-33.73 99.19-31.75 99.19-26.85L99.19-26.85Q99.19-24.75 98.42-23.13 97.64-21.5 96.12-20.43 94.59-19.35 92.39-18.95L92.39-18.95 92.39-18.7Q94.64-18.35 96.47-17.4 98.29-16.45 99.34-14.7 100.39-12.95 100.39-10.15L100.39-10.15Q100.39-6.9 98.89-4.63 97.39-2.35 94.62-1.18 91.84 0 87.99 0L87.99 0 75.44 0 75.44-35.7ZM79.94-20.5L86.54-20.5Q91.14-20.5 92.84-21.98 94.54-23.45 94.54-26.35L94.54-26.35Q94.54-29.3 92.47-30.58 90.39-31.85 85.84-31.85L85.84-31.85 79.94-31.85 79.94-20.5ZM86.79-16.75L79.94-16.75 79.94-3.8 87.14-3.8Q91.89-3.8 93.74-5.65 95.59-7.5 95.59-10.5L95.59-10.5Q95.59-12.4 94.77-13.8 93.94-15.2 92.02-15.98 90.09-16.75 86.79-16.75L86.79-16.75ZM130.64-13.45L130.64-13.45Q130.64-10.1 129.77-7.53 128.89-4.95 127.27-3.15 125.64-1.35 123.32-0.43 120.99 0.5 118.14 0.5L118.14 0.5Q115.49 0.5 113.24-0.43 110.99-1.35 109.34-3.15 107.69-4.95 106.77-7.53 105.84-10.1 105.84-13.45L105.84-13.45Q105.84-17.9 107.34-20.98 108.84-24.05 111.64-25.68 114.44-27.3 118.29-27.3L118.29-27.3Q121.94-27.3 124.72-25.68 127.49-24.05 129.07-20.98 130.64-17.9 130.64-13.45ZM110.39-13.45L110.39-13.45Q110.39-10.3 111.22-7.98 112.04-5.65 113.79-4.4 115.54-3.15 118.24-3.15L118.24-3.15Q120.94-3.15 122.69-4.4 124.44-5.65 125.27-7.98 126.09-10.3 126.09-13.45L126.09-13.45Q126.09-16.65 125.24-18.9 124.39-21.15 122.67-22.38 120.94-23.6 118.19-23.6L118.19-23.6Q114.09-23.6 112.24-20.9 110.39-18.2 110.39-13.45ZM134.24 0L143.94-13.7 134.69-26.8 139.69-26.8 146.59-16.7 153.44-26.8 158.39-26.8 149.14-13.7 158.89 0 153.89 0 146.59-10.7 139.19 0 134.24 0Z" opacity="1" transform="matrix(1,0,0,1,0,0)" fill="white" class="wordmark-text-0" id="SvgjsPath4284"></path></svg></g></svg></g><g transform="matrix(1,0,0,1,0,74.39863065634383)"><svg viewBox="0 0 244.43135999999998 18.30912569574488" height="18.30912569574488" width="244.43135999999998"><g transform="matrix(1,0,0,1,0,0)"><svg width="244.43135999999998" viewBox="0.7 -39.65 539.29 40.4" height="18.30912569574488" data-palette-color="url(#a41715a2-0f36-42f4-a727-db7ca5e72a2d)"><path d="M28.5-34.55L34.4-34.55 29.55 0 21.2 0 17.5-27.8 13.65 0 5.45 0 0.7-34.55 6.85-34.55 10.05-5.1 14.2-34.55 20.95-34.55 25-5.1 28.5-34.55ZM50.3-27.15Q53.15-27.15 54.8-25.1 56.45-23.05 56.45-19.6L56.45-19.6 56.45 0 50.3 0 50.3-18.9Q50.3-20.8 49.77-21.63 49.25-22.45 48.25-22.45L48.25-22.45Q46.15-22.45 44.1-18.5L44.1-18.5 44.1 0 37.95 0 37.95-37 44.1-37.65 44.1-23.3Q45.35-25.25 46.82-26.2 48.3-27.15 50.3-27.15L50.3-27.15ZM80.85-13.85Q80.85-13.4 80.7-11.3L80.7-11.3 67.05-11.3Q67.25-7.2 68.47-5.58 69.7-3.95 71.95-3.95L71.95-3.95Q73.5-3.95 74.75-4.48 76-5 77.45-6.15L77.45-6.15 80-2.65Q76.5 0.75 71.6 0.75L71.6 0.75Q66.4 0.75 63.62-2.85 60.85-6.45 60.85-13L60.85-13Q60.85-19.55 63.5-23.35 66.15-27.15 71-27.15L71-27.15Q75.65-27.15 78.25-23.78 80.85-20.4 80.85-13.85L80.85-13.85ZM74.85-15.3L74.85-15.65Q74.85-19.4 73.95-21.13 73.05-22.85 71.05-22.85L71.05-22.85Q69.2-22.85 68.22-21.18 67.25-19.5 67.05-15.3L67.05-15.3 74.85-15.3ZM96.79-27.1Q97.94-27.1 98.84-26.75L98.84-26.75 97.84-20.85Q96.84-21.1 95.99-21.1L95.99-21.1Q94.09-21.1 92.99-19.45 91.89-17.8 91.29-14.55L91.29-14.55 91.29 0 85.14 0 85.14-26.45 90.49-26.45 90.94-21.85Q92.79-27.1 96.79-27.1L96.79-27.1ZM120.54-13.85Q120.54-13.4 120.39-11.3L120.39-11.3 106.74-11.3Q106.94-7.2 108.17-5.58 109.39-3.95 111.64-3.95L111.64-3.95Q113.19-3.95 114.44-4.48 115.69-5 117.14-6.15L117.14-6.15 119.69-2.65Q116.19 0.75 111.29 0.75L111.29 0.75Q106.09 0.75 103.32-2.85 100.54-6.45 100.54-13L100.54-13Q100.54-19.55 103.19-23.35 105.84-27.15 110.69-27.15L110.69-27.15Q115.34-27.15 117.94-23.78 120.54-20.4 120.54-13.85L120.54-13.85ZM114.54-15.3L114.54-15.65Q114.54-19.4 113.64-21.13 112.74-22.85 110.74-22.85L110.74-22.85Q108.89-22.85 107.92-21.18 106.94-19.5 106.74-15.3L106.74-15.3 114.54-15.3ZM160.89-34.55L163.09 0 157.04 0 156.44-14.6Q156.14-22.6 156.14-26L156.14-26 156.19-28.6 151.44-3.8 145.44-3.8 140.49-28.65Q140.54-27.15 140.54-24.05L140.54-24.05Q140.54-18.8 140.34-14.4L140.34-14.4 139.79 0 133.84 0 136.04-34.55 144.04-34.55 148.54-10.2 152.74-34.55 160.89-34.55ZM186.03-26.45L186.03 0 180.68 0 180.38-3.35Q179.13-1.3 177.58-0.28 176.03 0.75 173.98 0.75L173.98 0.75Q171.08 0.75 169.41-1.3 167.73-3.35 167.73-6.65L167.73-6.65 167.73-26.45 173.88-26.45 173.88-7Q173.88-3.9 175.98-3.9L175.98-3.9Q177.18-3.9 178.13-4.83 179.08-5.75 179.88-7.45L179.88-7.45 179.88-26.45 186.03-26.45ZM199.08-27.15Q203.78-27.15 207.03-24.05L207.03-24.05 204.68-20.7Q203.28-21.7 202.03-22.2 200.78-22.7 199.48-22.7L199.48-22.7Q198.03-22.7 197.21-21.93 196.38-21.15 196.38-19.8L196.38-19.8Q196.38-18.45 197.31-17.63 198.23-16.8 201.03-15.7L201.03-15.7Q204.48-14.35 206.13-12.5 207.78-10.65 207.78-7.55L207.78-7.55Q207.78-3.7 205.08-1.48 202.38 0.75 198.23 0.75L198.23 0.75Q195.53 0.75 193.26-0.23 190.98-1.2 189.28-2.95L189.28-2.95 192.28-6.25Q195.08-3.8 197.98-3.8L197.98-3.8Q199.63-3.8 200.58-4.67 201.53-5.55 201.53-7.1L201.53-7.1Q201.53-8.25 201.13-8.97 200.73-9.7 199.73-10.33 198.73-10.95 196.73-11.7L196.73-11.7Q193.28-13.05 191.81-14.85 190.33-16.65 190.33-19.45L190.33-19.45Q190.33-22.8 192.71-24.98 195.08-27.15 199.08-27.15L199.08-27.15ZM211.63-26.45L217.78-26.45 217.78 0 211.63 0 211.63-26.45ZM214.68-39.65Q216.33-39.65 217.35-38.6 218.38-37.55 218.38-35.9L218.38-35.9Q218.38-34.3 217.35-33.25 216.33-32.2 214.68-32.2L214.68-32.2Q213.03-32.2 212-33.25 210.98-34.3 210.98-35.9L210.98-35.9Q210.98-37.55 212-38.6 213.03-39.65 214.68-39.65L214.68-39.65ZM232.98-27.15Q235.13-27.15 236.88-26.43 238.63-25.7 240.23-24.15L240.23-24.15 237.58-20.65Q236.48-21.55 235.5-21.98 234.53-22.4 233.38-22.4L233.38-22.4Q231.13-22.4 229.98-20.28 228.83-18.15 228.83-13.1L228.83-13.1Q228.83-8.2 230-6.2 231.18-4.2 233.38-4.2L233.38-4.2Q234.48-4.2 235.38-4.6 236.28-5 237.48-5.85L237.48-5.85 240.23-2.3Q237.03 0.75 233.08 0.75L233.08 0.75Q227.98 0.75 225.15-2.73 222.33-6.2 222.33-13L222.33-13Q222.33-17.4 223.63-20.6 224.93-23.8 227.35-25.48 229.78-27.15 232.98-27.15L232.98-27.15ZM279.32-34.55L281.52 0 275.47 0 274.87-14.6Q274.57-22.6 274.57-26L274.57-26 274.62-28.6 269.87-3.8 263.87-3.8 258.92-28.65Q258.97-27.15 258.97-24.05L258.97-24.05Q258.97-18.8 258.77-14.4L258.77-14.4 258.22 0 252.27 0 254.47-34.55 262.47-34.55 266.97-10.2 271.17-34.55 279.32-34.55ZM305.17-13.85Q305.17-13.4 305.02-11.3L305.02-11.3 291.37-11.3Q291.57-7.2 292.79-5.58 294.02-3.95 296.27-3.95L296.27-3.95Q297.82-3.95 299.07-4.48 300.32-5 301.77-6.15L301.77-6.15 304.32-2.65Q300.82 0.75 295.92 0.75L295.92 0.75Q290.72 0.75 287.94-2.85 285.17-6.45 285.17-13L285.17-13Q285.17-19.55 287.82-23.35 290.47-27.15 295.32-27.15L295.32-27.15Q299.97-27.15 302.57-23.78 305.17-20.4 305.17-13.85L305.17-13.85ZM299.17-15.3L299.17-15.65Q299.17-19.4 298.27-21.13 297.37-22.85 295.37-22.85L295.37-22.85Q293.52-22.85 292.54-21.18 291.57-19.5 291.37-15.3L291.37-15.3 299.17-15.3ZM328.31-13.85Q328.31-13.4 328.17-11.3L328.17-11.3 314.51-11.3Q314.72-7.2 315.94-5.58 317.17-3.95 319.42-3.95L319.42-3.95Q320.97-3.95 322.22-4.48 323.47-5 324.92-6.15L324.92-6.15 327.47-2.65Q323.97 0.75 319.06 0.75L319.06 0.75Q313.87 0.75 311.09-2.85 308.31-6.45 308.31-13L308.31-13Q308.31-19.55 310.97-23.35 313.62-27.15 318.47-27.15L318.47-27.15Q323.12-27.15 325.72-23.78 328.31-20.4 328.31-13.85L328.31-13.85ZM322.31-15.3L322.31-15.65Q322.31-19.4 321.42-21.13 320.51-22.85 318.51-22.85L318.51-22.85Q316.67-22.85 315.69-21.18 314.72-19.5 314.51-15.3L314.51-15.3 322.31-15.3ZM343.76-5L345.91-1.2Q343.46 0.75 340.16 0.75L340.16 0.75Q336.71 0.75 334.91-1.23 333.11-3.2 333.11-6.6L333.11-6.6 333.11-22 330.01-22 330.01-26.45 333.11-26.45 333.11-32.3 339.26-33.05 339.26-26.45 344.26-26.45 343.66-22 339.26-22 339.26-6.6Q339.26-4.2 341.31-4.2L341.31-4.2Q341.96-4.2 342.46-4.38 342.96-4.55 343.76-5L343.76-5ZM355.81-27.15Q360.51-27.15 363.76-24.05L363.76-24.05 361.41-20.7Q360.01-21.7 358.76-22.2 357.51-22.7 356.21-22.7L356.21-22.7Q354.76-22.7 353.94-21.93 353.11-21.15 353.11-19.8L353.11-19.8Q353.11-18.45 354.04-17.63 354.96-16.8 357.76-15.7L357.76-15.7Q361.21-14.35 362.86-12.5 364.51-10.65 364.51-7.55L364.51-7.55Q364.51-3.7 361.81-1.48 359.11 0.75 354.96 0.75L354.96 0.75Q352.26 0.75 349.99-0.23 347.71-1.2 346.01-2.95L346.01-2.95 349.01-6.25Q351.81-3.8 354.71-3.8L354.71-3.8Q356.36-3.8 357.31-4.67 358.26-5.55 358.26-7.1L358.26-7.1Q358.26-8.25 357.86-8.97 357.46-9.7 356.46-10.33 355.46-10.95 353.46-11.7L353.46-11.7Q350.01-13.05 348.54-14.85 347.06-16.65 347.06-19.45L347.06-19.45Q347.06-22.8 349.44-24.98 351.81-27.15 355.81-27.15L355.81-27.15ZM384.71 0L378.36 0 378.36-34.55 395.06-34.55 394.36-29.8 384.71-29.8 384.71-19.25 393.11-19.25 393.11-14.5 384.71-14.5 384.71 0ZM410-27.1Q411.15-27.1 412.05-26.75L412.05-26.75 411.05-20.85Q410.05-21.1 409.2-21.1L409.2-21.1Q407.3-21.1 406.2-19.45 405.1-17.8 404.5-14.55L404.5-14.55 404.5 0 398.35 0 398.35-26.45 403.7-26.45 404.15-21.85Q406-27.1 410-27.1L410-27.1ZM433.75-13.85Q433.75-13.4 433.6-11.3L433.6-11.3 419.95-11.3Q420.15-7.2 421.38-5.58 422.6-3.95 424.85-3.95L424.85-3.95Q426.4-3.95 427.65-4.48 428.9-5 430.35-6.15L430.35-6.15 432.9-2.65Q429.4 0.75 424.5 0.75L424.5 0.75Q419.3 0.75 416.53-2.85 413.75-6.45 413.75-13L413.75-13Q413.75-19.55 416.4-23.35 419.05-27.15 423.9-27.15L423.9-27.15Q428.55-27.15 431.15-23.78 433.75-20.4 433.75-13.85L433.75-13.85ZM427.75-15.3L427.75-15.65Q427.75-19.4 426.85-21.13 425.95-22.85 423.95-22.85L423.95-22.85Q422.1-22.85 421.13-21.18 420.15-19.5 419.95-15.3L419.95-15.3 427.75-15.3ZM456.9-13.85Q456.9-13.4 456.75-11.3L456.75-11.3 443.1-11.3Q443.3-7.2 444.52-5.58 445.75-3.95 448-3.95L448-3.95Q449.55-3.95 450.8-4.48 452.05-5 453.5-6.15L453.5-6.15 456.05-2.65Q452.55 0.75 447.65 0.75L447.65 0.75Q442.45 0.75 439.67-2.85 436.9-6.45 436.9-13L436.9-13Q436.9-19.55 439.55-23.35 442.2-27.15 447.05-27.15L447.05-27.15Q451.7-27.15 454.3-23.78 456.9-20.4 456.9-13.85L456.9-13.85ZM450.9-15.3L450.9-15.65Q450.9-19.4 450-21.13 449.1-22.85 447.1-22.85L447.1-22.85Q445.25-22.85 444.27-21.18 443.3-19.5 443.1-15.3L443.1-15.3 450.9-15.3ZM474.14-37.7L480.29-37.05 480.29 0 474.84 0 474.54-3.05Q472.19 0.75 468.49 0.75L468.49 0.75Q464.39 0.75 462.22-2.93 460.04-6.6 460.04-13.2L460.04-13.2Q460.04-17.4 461.17-20.58 462.29-23.75 464.29-25.45 466.29-27.15 468.89-27.15L468.89-27.15Q472.09-27.15 474.14-24.5L474.14-24.5 474.14-37.7ZM470.24-3.9Q471.39-3.9 472.32-4.7 473.24-5.5 474.14-7L474.14-7 474.14-19.85Q472.54-22.55 470.49-22.55L470.49-22.55Q466.44-22.55 466.44-13.25L466.44-13.25Q466.44-8.2 467.44-6.05 468.44-3.9 470.24-3.9L470.24-3.9ZM495.39-27.15Q500.39-27.15 503.17-23.65 505.94-20.15 505.94-13.25L505.94-13.25Q505.94-6.65 503.14-2.95 500.34 0.75 495.39 0.75L495.39 0.75Q490.44 0.75 487.64-2.88 484.84-6.5 484.84-13.25L484.84-13.25Q484.84-19.95 487.64-23.55 490.44-27.15 495.39-27.15L495.39-27.15ZM495.39-22.5Q493.24-22.5 492.24-20.38 491.24-18.25 491.24-13.25L491.24-13.25Q491.24-8.2 492.24-6.08 493.24-3.95 495.39-3.95L495.39-3.95Q497.54-3.95 498.54-6.08 499.54-8.2 499.54-13.25L499.54-13.25Q499.54-18.3 498.54-20.4 497.54-22.5 495.39-22.5L495.39-22.5ZM534.14-27.15Q536.79-27.15 538.39-25.1 539.99-23.05 539.99-19.6L539.99-19.6 539.99 0 533.94 0 533.94-18.95Q533.94-20.85 533.44-21.68 532.94-22.5 531.99-22.5L531.99-22.5Q530.04-22.5 528.24-18.8L528.24-18.8 528.24 0 522.24 0 522.24-18.95Q522.24-22.5 520.34-22.5L520.34-22.5Q518.29-22.5 516.54-18.8L516.54-18.8 516.54 0 510.49 0 510.49-26.45 515.84-26.45 516.24-23.05Q518.84-27.15 522.49-27.15L522.49-27.15Q524.34-27.15 525.69-26 527.04-24.85 527.74-22.75L527.74-22.75Q530.39-27.15 534.14-27.15L534.14-27.15Z" opacity="1" transform="matrix(1,0,0,1,0,0)" fill="black" class="slogan-text-1" id="SvgjsPath4283"></path></svg></g></svg></g></svg></g></svg></g></svg></g></svg></g></svg></g><g><path d="M0 123.6c0-68.262 55.338-123.6 123.6-123.6 49.114 0 91.537 28.646 111.473 70.141l-3.02 0c-19.729-39.95-60.883-67.428-108.453-67.427-66.764 0-120.886 54.123-120.886 120.886 0 66.764 54.123 120.886 120.886 120.886 47.571 0 88.724-27.478 108.453-67.427h3.02c-19.936 41.495-62.359 70.141-111.473 70.141-68.262 0-123.6-55.338-123.6-123.6z" fill="black" stroke="transparent"></path></g></svg></g><defs><mask></mask></defs></svg><rect width="395.52" height="247.2" fill="black" stroke="none" visibility="hidden"></rect></g></mask><linearGradient x1="0" x2="1" y1="0.5" y2="0.5" id="7554172d-4288-4e5f-96a5-b3d6bf4f67de"><stop stop-color="#f00b51" offset="0"></stop><stop stop-color="#730062" offset="1"></stop></linearGradient><rect width="395.52" height="247.2" fill="url(#7554172d-4288-4e5f-96a5-b3d6bf4f67de)" mask="url(#a341180b-4723-4a00-86f0-7f771568f7a6)" data-fill-palette-color="primary"></rect><mask id="1a31297c-0404-404d-8cc3-e23018b41ed6"><g id="SvgjsG4296"><svg viewBox="0 0 395.52 247.2" height="247.2" width="395.52"><g><svg></svg></g><g><svg viewBox="0 0 395.52 247.2" height="247.2" width="395.52"><g transform="matrix(1,0,0,1,75.54432,77.24612182395565)"><svg viewBox="0 0 244.43135999999998 92.7077563520887" height="92.7077563520887" width="244.43135999999998"><g><svg viewBox="0 0 244.43135999999998 92.7077563520887" height="92.7077563520887" width="244.43135999999998"><g><svg viewBox="0 0 244.43135999999998 92.7077563520887" height="92.7077563520887" width="244.43135999999998"><g><svg viewBox="0 0 244.43135999999998 92.7077563520887" height="92.7077563520887" width="244.43135999999998"><g id="SvgjsG4295"><svg viewBox="0 0 244.43135999999998 92.7077563520887" height="92.7077563520887" width="244.43135999999998" id="SvgjsSvg4294"><g><svg viewBox="0 0 244.43135999999998 60.1893659098177" height="60.1893659098177" width="244.43135999999998"><g transform="matrix(1,0,0,1,0,0)"><svg width="244.43135999999998" viewBox="2.55 -38 156.33999999999997 38.50000000000001" height="60.1893659098177" data-palette-color="url(#7554172d-4288-4e5f-96a5-b3d6bf4f67de)"></svg></g></svg></g><g transform="matrix(1,0,0,1,0,74.39863065634383)"><svg viewBox="0 0 244.43135999999998 18.30912569574488" height="18.30912569574488" width="244.43135999999998"><g transform="matrix(1,0,0,1,0,0)"><svg width="244.43135999999998" viewBox="0.7 -39.65 539.29 40.4" height="18.30912569574488" data-palette-color="url(#a41715a2-0f36-42f4-a727-db7ca5e72a2d)"><path d="M28.5-34.55L34.4-34.55 29.55 0 21.2 0 17.5-27.8 13.65 0 5.45 0 0.7-34.55 6.85-34.55 10.05-5.1 14.2-34.55 20.95-34.55 25-5.1 28.5-34.55ZM50.3-27.15Q53.15-27.15 54.8-25.1 56.45-23.05 56.45-19.6L56.45-19.6 56.45 0 50.3 0 50.3-18.9Q50.3-20.8 49.77-21.63 49.25-22.45 48.25-22.45L48.25-22.45Q46.15-22.45 44.1-18.5L44.1-18.5 44.1 0 37.95 0 37.95-37 44.1-37.65 44.1-23.3Q45.35-25.25 46.82-26.2 48.3-27.15 50.3-27.15L50.3-27.15ZM80.85-13.85Q80.85-13.4 80.7-11.3L80.7-11.3 67.05-11.3Q67.25-7.2 68.47-5.58 69.7-3.95 71.95-3.95L71.95-3.95Q73.5-3.95 74.75-4.48 76-5 77.45-6.15L77.45-6.15 80-2.65Q76.5 0.75 71.6 0.75L71.6 0.75Q66.4 0.75 63.62-2.85 60.85-6.45 60.85-13L60.85-13Q60.85-19.55 63.5-23.35 66.15-27.15 71-27.15L71-27.15Q75.65-27.15 78.25-23.78 80.85-20.4 80.85-13.85L80.85-13.85ZM74.85-15.3L74.85-15.65Q74.85-19.4 73.95-21.13 73.05-22.85 71.05-22.85L71.05-22.85Q69.2-22.85 68.22-21.18 67.25-19.5 67.05-15.3L67.05-15.3 74.85-15.3ZM96.79-27.1Q97.94-27.1 98.84-26.75L98.84-26.75 97.84-20.85Q96.84-21.1 95.99-21.1L95.99-21.1Q94.09-21.1 92.99-19.45 91.89-17.8 91.29-14.55L91.29-14.55 91.29 0 85.14 0 85.14-26.45 90.49-26.45 90.94-21.85Q92.79-27.1 96.79-27.1L96.79-27.1ZM120.54-13.85Q120.54-13.4 120.39-11.3L120.39-11.3 106.74-11.3Q106.94-7.2 108.17-5.58 109.39-3.95 111.64-3.95L111.64-3.95Q113.19-3.95 114.44-4.48 115.69-5 117.14-6.15L117.14-6.15 119.69-2.65Q116.19 0.75 111.29 0.75L111.29 0.75Q106.09 0.75 103.32-2.85 100.54-6.45 100.54-13L100.54-13Q100.54-19.55 103.19-23.35 105.84-27.15 110.69-27.15L110.69-27.15Q115.34-27.15 117.94-23.78 120.54-20.4 120.54-13.85L120.54-13.85ZM114.54-15.3L114.54-15.65Q114.54-19.4 113.64-21.13 112.74-22.85 110.74-22.85L110.74-22.85Q108.89-22.85 107.92-21.18 106.94-19.5 106.74-15.3L106.74-15.3 114.54-15.3ZM160.89-34.55L163.09 0 157.04 0 156.44-14.6Q156.14-22.6 156.14-26L156.14-26 156.19-28.6 151.44-3.8 145.44-3.8 140.49-28.65Q140.54-27.15 140.54-24.05L140.54-24.05Q140.54-18.8 140.34-14.4L140.34-14.4 139.79 0 133.84 0 136.04-34.55 144.04-34.55 148.54-10.2 152.74-34.55 160.89-34.55ZM186.03-26.45L186.03 0 180.68 0 180.38-3.35Q179.13-1.3 177.58-0.28 176.03 0.75 173.98 0.75L173.98 0.75Q171.08 0.75 169.41-1.3 167.73-3.35 167.73-6.65L167.73-6.65 167.73-26.45 173.88-26.45 173.88-7Q173.88-3.9 175.98-3.9L175.98-3.9Q177.18-3.9 178.13-4.83 179.08-5.75 179.88-7.45L179.88-7.45 179.88-26.45 186.03-26.45ZM199.08-27.15Q203.78-27.15 207.03-24.05L207.03-24.05 204.68-20.7Q203.28-21.7 202.03-22.2 200.78-22.7 199.48-22.7L199.48-22.7Q198.03-22.7 197.21-21.93 196.38-21.15 196.38-19.8L196.38-19.8Q196.38-18.45 197.31-17.63 198.23-16.8 201.03-15.7L201.03-15.7Q204.48-14.35 206.13-12.5 207.78-10.65 207.78-7.55L207.78-7.55Q207.78-3.7 205.08-1.48 202.38 0.75 198.23 0.75L198.23 0.75Q195.53 0.75 193.26-0.23 190.98-1.2 189.28-2.95L189.28-2.95 192.28-6.25Q195.08-3.8 197.98-3.8L197.98-3.8Q199.63-3.8 200.58-4.67 201.53-5.55 201.53-7.1L201.53-7.1Q201.53-8.25 201.13-8.97 200.73-9.7 199.73-10.33 198.73-10.95 196.73-11.7L196.73-11.7Q193.28-13.05 191.81-14.85 190.33-16.65 190.33-19.45L190.33-19.45Q190.33-22.8 192.71-24.98 195.08-27.15 199.08-27.15L199.08-27.15ZM211.63-26.45L217.78-26.45 217.78 0 211.63 0 211.63-26.45ZM214.68-39.65Q216.33-39.65 217.35-38.6 218.38-37.55 218.38-35.9L218.38-35.9Q218.38-34.3 217.35-33.25 216.33-32.2 214.68-32.2L214.68-32.2Q213.03-32.2 212-33.25 210.98-34.3 210.98-35.9L210.98-35.9Q210.98-37.55 212-38.6 213.03-39.65 214.68-39.65L214.68-39.65ZM232.98-27.15Q235.13-27.15 236.88-26.43 238.63-25.7 240.23-24.15L240.23-24.15 237.58-20.65Q236.48-21.55 235.5-21.98 234.53-22.4 233.38-22.4L233.38-22.4Q231.13-22.4 229.98-20.28 228.83-18.15 228.83-13.1L228.83-13.1Q228.83-8.2 230-6.2 231.18-4.2 233.38-4.2L233.38-4.2Q234.48-4.2 235.38-4.6 236.28-5 237.48-5.85L237.48-5.85 240.23-2.3Q237.03 0.75 233.08 0.75L233.08 0.75Q227.98 0.75 225.15-2.73 222.33-6.2 222.33-13L222.33-13Q222.33-17.4 223.63-20.6 224.93-23.8 227.35-25.48 229.78-27.15 232.98-27.15L232.98-27.15ZM279.32-34.55L281.52 0 275.47 0 274.87-14.6Q274.57-22.6 274.57-26L274.57-26 274.62-28.6 269.87-3.8 263.87-3.8 258.92-28.65Q258.97-27.15 258.97-24.05L258.97-24.05Q258.97-18.8 258.77-14.4L258.77-14.4 258.22 0 252.27 0 254.47-34.55 262.47-34.55 266.97-10.2 271.17-34.55 279.32-34.55ZM305.17-13.85Q305.17-13.4 305.02-11.3L305.02-11.3 291.37-11.3Q291.57-7.2 292.79-5.58 294.02-3.95 296.27-3.95L296.27-3.95Q297.82-3.95 299.07-4.48 300.32-5 301.77-6.15L301.77-6.15 304.32-2.65Q300.82 0.75 295.92 0.75L295.92 0.75Q290.72 0.75 287.94-2.85 285.17-6.45 285.17-13L285.17-13Q285.17-19.55 287.82-23.35 290.47-27.15 295.32-27.15L295.32-27.15Q299.97-27.15 302.57-23.78 305.17-20.4 305.17-13.85L305.17-13.85ZM299.17-15.3L299.17-15.65Q299.17-19.4 298.27-21.13 297.37-22.85 295.37-22.85L295.37-22.85Q293.52-22.85 292.54-21.18 291.57-19.5 291.37-15.3L291.37-15.3 299.17-15.3ZM328.31-13.85Q328.31-13.4 328.17-11.3L328.17-11.3 314.51-11.3Q314.72-7.2 315.94-5.58 317.17-3.95 319.42-3.95L319.42-3.95Q320.97-3.95 322.22-4.48 323.47-5 324.92-6.15L324.92-6.15 327.47-2.65Q323.97 0.75 319.06 0.75L319.06 0.75Q313.87 0.75 311.09-2.85 308.31-6.45 308.31-13L308.31-13Q308.31-19.55 310.97-23.35 313.62-27.15 318.47-27.15L318.47-27.15Q323.12-27.15 325.72-23.78 328.31-20.4 328.31-13.85L328.31-13.85ZM322.31-15.3L322.31-15.65Q322.31-19.4 321.42-21.13 320.51-22.85 318.51-22.85L318.51-22.85Q316.67-22.85 315.69-21.18 314.72-19.5 314.51-15.3L314.51-15.3 322.31-15.3ZM343.76-5L345.91-1.2Q343.46 0.75 340.16 0.75L340.16 0.75Q336.71 0.75 334.91-1.23 333.11-3.2 333.11-6.6L333.11-6.6 333.11-22 330.01-22 330.01-26.45 333.11-26.45 333.11-32.3 339.26-33.05 339.26-26.45 344.26-26.45 343.66-22 339.26-22 339.26-6.6Q339.26-4.2 341.31-4.2L341.31-4.2Q341.96-4.2 342.46-4.38 342.96-4.55 343.76-5L343.76-5ZM355.81-27.15Q360.51-27.15 363.76-24.05L363.76-24.05 361.41-20.7Q360.01-21.7 358.76-22.2 357.51-22.7 356.21-22.7L356.21-22.7Q354.76-22.7 353.94-21.93 353.11-21.15 353.11-19.8L353.11-19.8Q353.11-18.45 354.04-17.63 354.96-16.8 357.76-15.7L357.76-15.7Q361.21-14.35 362.86-12.5 364.51-10.65 364.51-7.55L364.51-7.55Q364.51-3.7 361.81-1.48 359.11 0.75 354.96 0.75L354.96 0.75Q352.26 0.75 349.99-0.23 347.71-1.2 346.01-2.95L346.01-2.95 349.01-6.25Q351.81-3.8 354.71-3.8L354.71-3.8Q356.36-3.8 357.31-4.67 358.26-5.55 358.26-7.1L358.26-7.1Q358.26-8.25 357.86-8.97 357.46-9.7 356.46-10.33 355.46-10.95 353.46-11.7L353.46-11.7Q350.01-13.05 348.54-14.85 347.06-16.65 347.06-19.45L347.06-19.45Q347.06-22.8 349.44-24.98 351.81-27.15 355.81-27.15L355.81-27.15ZM384.71 0L378.36 0 378.36-34.55 395.06-34.55 394.36-29.8 384.71-29.8 384.71-19.25 393.11-19.25 393.11-14.5 384.71-14.5 384.71 0ZM410-27.1Q411.15-27.1 412.05-26.75L412.05-26.75 411.05-20.85Q410.05-21.1 409.2-21.1L409.2-21.1Q407.3-21.1 406.2-19.45 405.1-17.8 404.5-14.55L404.5-14.55 404.5 0 398.35 0 398.35-26.45 403.7-26.45 404.15-21.85Q406-27.1 410-27.1L410-27.1ZM433.75-13.85Q433.75-13.4 433.6-11.3L433.6-11.3 419.95-11.3Q420.15-7.2 421.38-5.58 422.6-3.95 424.85-3.95L424.85-3.95Q426.4-3.95 427.65-4.48 428.9-5 430.35-6.15L430.35-6.15 432.9-2.65Q429.4 0.75 424.5 0.75L424.5 0.75Q419.3 0.75 416.53-2.85 413.75-6.45 413.75-13L413.75-13Q413.75-19.55 416.4-23.35 419.05-27.15 423.9-27.15L423.9-27.15Q428.55-27.15 431.15-23.78 433.75-20.4 433.75-13.85L433.75-13.85ZM427.75-15.3L427.75-15.65Q427.75-19.4 426.85-21.13 425.95-22.85 423.95-22.85L423.95-22.85Q422.1-22.85 421.13-21.18 420.15-19.5 419.95-15.3L419.95-15.3 427.75-15.3ZM456.9-13.85Q456.9-13.4 456.75-11.3L456.75-11.3 443.1-11.3Q443.3-7.2 444.52-5.58 445.75-3.95 448-3.95L448-3.95Q449.55-3.95 450.8-4.48 452.05-5 453.5-6.15L453.5-6.15 456.05-2.65Q452.55 0.75 447.65 0.75L447.65 0.75Q442.45 0.75 439.67-2.85 436.9-6.45 436.9-13L436.9-13Q436.9-19.55 439.55-23.35 442.2-27.15 447.05-27.15L447.05-27.15Q451.7-27.15 454.3-23.78 456.9-20.4 456.9-13.85L456.9-13.85ZM450.9-15.3L450.9-15.65Q450.9-19.4 450-21.13 449.1-22.85 447.1-22.85L447.1-22.85Q445.25-22.85 444.27-21.18 443.3-19.5 443.1-15.3L443.1-15.3 450.9-15.3ZM474.14-37.7L480.29-37.05 480.29 0 474.84 0 474.54-3.05Q472.19 0.75 468.49 0.75L468.49 0.75Q464.39 0.75 462.22-2.93 460.04-6.6 460.04-13.2L460.04-13.2Q460.04-17.4 461.17-20.58 462.29-23.75 464.29-25.45 466.29-27.15 468.89-27.15L468.89-27.15Q472.09-27.15 474.14-24.5L474.14-24.5 474.14-37.7ZM470.24-3.9Q471.39-3.9 472.32-4.7 473.24-5.5 474.14-7L474.14-7 474.14-19.85Q472.54-22.55 470.49-22.55L470.49-22.55Q466.44-22.55 466.44-13.25L466.44-13.25Q466.44-8.2 467.44-6.05 468.44-3.9 470.24-3.9L470.24-3.9ZM495.39-27.15Q500.39-27.15 503.17-23.65 505.94-20.15 505.94-13.25L505.94-13.25Q505.94-6.65 503.14-2.95 500.34 0.75 495.39 0.75L495.39 0.75Q490.44 0.75 487.64-2.88 484.84-6.5 484.84-13.25L484.84-13.25Q484.84-19.95 487.64-23.55 490.44-27.15 495.39-27.15L495.39-27.15ZM495.39-22.5Q493.24-22.5 492.24-20.38 491.24-18.25 491.24-13.25L491.24-13.25Q491.24-8.2 492.24-6.08 493.24-3.95 495.39-3.95L495.39-3.95Q497.54-3.95 498.54-6.08 499.54-8.2 499.54-13.25L499.54-13.25Q499.54-18.3 498.54-20.4 497.54-22.5 495.39-22.5L495.39-22.5ZM534.14-27.15Q536.79-27.15 538.39-25.1 539.99-23.05 539.99-19.6L539.99-19.6 539.99 0 533.94 0 533.94-18.95Q533.94-20.85 533.44-21.68 532.94-22.5 531.99-22.5L531.99-22.5Q530.04-22.5 528.24-18.8L528.24-18.8 528.24 0 522.24 0 522.24-18.95Q522.24-22.5 520.34-22.5L520.34-22.5Q518.29-22.5 516.54-18.8L516.54-18.8 516.54 0 510.49 0 510.49-26.45 515.84-26.45 516.24-23.05Q518.84-27.15 522.49-27.15L522.49-27.15Q524.34-27.15 525.69-26 527.04-24.85 527.74-22.75L527.74-22.75Q530.39-27.15 534.14-27.15L534.14-27.15Z" opacity="1" transform="matrix(1,0,0,1,0,0)" fill="white" class="slogan-text-1" id="SvgjsPath4293"></path></svg></g></svg></g></svg></g></svg></g></svg></g></svg></g></svg></g><g><path d="M0 123.6c0-68.262 55.338-123.6 123.6-123.6 49.114 0 91.537 28.646 111.473 70.141l-3.02 0c-19.729-39.95-60.883-67.428-108.453-67.427-66.764 0-120.886 54.123-120.886 120.886 0 66.764 54.123 120.886 120.886 120.886 47.571 0 88.724-27.478 108.453-67.427h3.02c-19.936 41.495-62.359 70.141-111.473 70.141-68.262 0-123.6-55.338-123.6-123.6z" fill="black" stroke="transparent"></path></g></svg></g><defs><mask></mask></defs><mask><g id="SvgjsG4292"><svg viewBox="0 0 395.52 247.2" height="247.2" width="395.52"><g><svg></svg></g><g><svg viewBox="0 0 395.52 247.2" height="247.2" width="395.52"><g transform="matrix(1,0,0,1,75.54432,77.24612182395565)"><svg viewBox="0 0 244.43135999999998 92.7077563520887" height="92.7077563520887" width="244.43135999999998"><g><svg viewBox="0 0 244.43135999999998 92.7077563520887" height="92.7077563520887" width="244.43135999999998"><g><svg viewBox="0 0 244.43135999999998 92.7077563520887" height="92.7077563520887" width="244.43135999999998"><g><svg viewBox="0 0 244.43135999999998 92.7077563520887" height="92.7077563520887" width="244.43135999999998"><g id="SvgjsG4291"><svg viewBox="0 0 244.43135999999998 92.7077563520887" height="92.7077563520887" width="244.43135999999998" id="SvgjsSvg4290"><g><svg viewBox="0 0 244.43135999999998 60.1893659098177" height="60.1893659098177" width="244.43135999999998"><g transform="matrix(1,0,0,1,0,0)"><svg width="244.43135999999998" viewBox="2.55 -38 156.33999999999997 38.50000000000001" height="60.1893659098177" data-palette-color="url(#7554172d-4288-4e5f-96a5-b3d6bf4f67de)"><path d="M25.1-9.55L25.1-9.55Q25.1-6.35 23.55-4.13 22-1.9 19.13-0.7 16.25 0.5 12.35 0.5L12.35 0.5Q10.35 0.5 8.53 0.3 6.7 0.1 5.2-0.28 3.7-0.65 2.55-1.2L2.55-1.2 2.55-5.5Q4.35-4.7 7.03-4.05 9.7-3.4 12.55-3.4L12.55-3.4Q15.2-3.4 17-4.1 18.8-4.8 19.7-6.1 20.6-7.4 20.6-9.15L20.6-9.15Q20.6-10.9 19.85-12.1 19.1-13.3 17.28-14.33 15.45-15.35 12.2-16.5L12.2-16.5Q9.9-17.35 8.18-18.32 6.45-19.3 5.3-20.55 4.15-21.8 3.58-23.4 3-25 3-27.1L3-27.1Q3-29.95 4.45-31.98 5.9-34 8.47-35.1 11.05-36.2 14.4-36.2L14.4-36.2Q17.35-36.2 19.8-35.65 22.25-35.1 24.25-34.2L24.25-34.2 22.85-30.35Q21-31.15 18.82-31.7 16.65-32.25 14.3-32.25L14.3-32.25Q12.05-32.25 10.55-31.6 9.05-30.95 8.3-29.78 7.55-28.6 7.55-27.05L7.55-27.05Q7.55-25.25 8.3-24.05 9.05-22.85 10.75-21.9 12.45-20.95 15.35-19.85L15.35-19.85Q18.5-18.7 20.68-17.38 22.85-16.05 23.98-14.2 25.1-12.35 25.1-9.55ZM55-13.45L55-13.45Q55-10.1 54.12-7.53 53.25-4.95 51.62-3.15 50-1.35 47.67-0.43 45.35 0.5 42.5 0.5L42.5 0.5Q39.85 0.5 37.6-0.43 35.35-1.35 33.7-3.15 32.05-4.95 31.12-7.53 30.2-10.1 30.2-13.45L30.2-13.45Q30.2-17.9 31.7-20.98 33.2-24.05 36-25.68 38.8-27.3 42.65-27.3L42.65-27.3Q46.3-27.3 49.07-25.68 51.85-24.05 53.42-20.98 55-17.9 55-13.45ZM34.75-13.45L34.75-13.45Q34.75-10.3 35.57-7.98 36.4-5.65 38.15-4.4 39.9-3.15 42.6-3.15L42.6-3.15Q45.3-3.15 47.05-4.4 48.8-5.65 49.62-7.98 50.45-10.3 50.45-13.45L50.45-13.45Q50.45-16.65 49.6-18.9 48.75-21.15 47.02-22.38 45.3-23.6 42.55-23.6L42.55-23.6Q38.45-23.6 36.6-20.9 34.75-18.2 34.75-13.45ZM66.35-38L66.35 0 61.95 0 61.95-38 66.35-38ZM75.44-35.7L85.64-35.7Q92.34-35.7 95.77-33.73 99.19-31.75 99.19-26.85L99.19-26.85Q99.19-24.75 98.42-23.13 97.64-21.5 96.12-20.43 94.59-19.35 92.39-18.95L92.39-18.95 92.39-18.7Q94.64-18.35 96.47-17.4 98.29-16.45 99.34-14.7 100.39-12.95 100.39-10.15L100.39-10.15Q100.39-6.9 98.89-4.63 97.39-2.35 94.62-1.18 91.84 0 87.99 0L87.99 0 75.44 0 75.44-35.7ZM79.94-20.5L86.54-20.5Q91.14-20.5 92.84-21.98 94.54-23.45 94.54-26.35L94.54-26.35Q94.54-29.3 92.47-30.58 90.39-31.85 85.84-31.85L85.84-31.85 79.94-31.85 79.94-20.5ZM86.79-16.75L79.94-16.75 79.94-3.8 87.14-3.8Q91.89-3.8 93.74-5.65 95.59-7.5 95.59-10.5L95.59-10.5Q95.59-12.4 94.77-13.8 93.94-15.2 92.02-15.98 90.09-16.75 86.79-16.75L86.79-16.75ZM130.64-13.45L130.64-13.45Q130.64-10.1 129.77-7.53 128.89-4.95 127.27-3.15 125.64-1.35 123.32-0.43 120.99 0.5 118.14 0.5L118.14 0.5Q115.49 0.5 113.24-0.43 110.99-1.35 109.34-3.15 107.69-4.95 106.77-7.53 105.84-10.1 105.84-13.45L105.84-13.45Q105.84-17.9 107.34-20.98 108.84-24.05 111.64-25.68 114.44-27.3 118.29-27.3L118.29-27.3Q121.94-27.3 124.72-25.68 127.49-24.05 129.07-20.98 130.64-17.9 130.64-13.45ZM110.39-13.45L110.39-13.45Q110.39-10.3 111.22-7.98 112.04-5.65 113.79-4.4 115.54-3.15 118.24-3.15L118.24-3.15Q120.94-3.15 122.69-4.4 124.44-5.65 125.27-7.98 126.09-10.3 126.09-13.45L126.09-13.45Q126.09-16.65 125.24-18.9 124.39-21.15 122.67-22.38 120.94-23.6 118.19-23.6L118.19-23.6Q114.09-23.6 112.24-20.9 110.39-18.2 110.39-13.45ZM134.24 0L143.94-13.7 134.69-26.8 139.69-26.8 146.59-16.7 153.44-26.8 158.39-26.8 149.14-13.7 158.89 0 153.89 0 146.59-10.7 139.19 0 134.24 0Z" opacity="1" transform="matrix(1,0,0,1,0,0)" fill="black" class="wordmark-text-0" id="SvgjsPath4289"></path></svg></g></svg></g><g transform="matrix(1,0,0,1,0,74.39863065634383)"><svg viewBox="0 0 244.43135999999998 18.30912569574488" height="18.30912569574488" width="244.43135999999998"><g transform="matrix(1,0,0,1,0,0)"><svg width="244.43135999999998" viewBox="0.7 -39.65 539.29 40.4" height="18.30912569574488" data-palette-color="url(#a41715a2-0f36-42f4-a727-db7ca5e72a2d)"><path d="M28.5-34.55L34.4-34.55 29.55 0 21.2 0 17.5-27.8 13.65 0 5.45 0 0.7-34.55 6.85-34.55 10.05-5.1 14.2-34.55 20.95-34.55 25-5.1 28.5-34.55ZM50.3-27.15Q53.15-27.15 54.8-25.1 56.45-23.05 56.45-19.6L56.45-19.6 56.45 0 50.3 0 50.3-18.9Q50.3-20.8 49.77-21.63 49.25-22.45 48.25-22.45L48.25-22.45Q46.15-22.45 44.1-18.5L44.1-18.5 44.1 0 37.95 0 37.95-37 44.1-37.65 44.1-23.3Q45.35-25.25 46.82-26.2 48.3-27.15 50.3-27.15L50.3-27.15ZM80.85-13.85Q80.85-13.4 80.7-11.3L80.7-11.3 67.05-11.3Q67.25-7.2 68.47-5.58 69.7-3.95 71.95-3.95L71.95-3.95Q73.5-3.95 74.75-4.48 76-5 77.45-6.15L77.45-6.15 80-2.65Q76.5 0.75 71.6 0.75L71.6 0.75Q66.4 0.75 63.62-2.85 60.85-6.45 60.85-13L60.85-13Q60.85-19.55 63.5-23.35 66.15-27.15 71-27.15L71-27.15Q75.65-27.15 78.25-23.78 80.85-20.4 80.85-13.85L80.85-13.85ZM74.85-15.3L74.85-15.65Q74.85-19.4 73.95-21.13 73.05-22.85 71.05-22.85L71.05-22.85Q69.2-22.85 68.22-21.18 67.25-19.5 67.05-15.3L67.05-15.3 74.85-15.3ZM96.79-27.1Q97.94-27.1 98.84-26.75L98.84-26.75 97.84-20.85Q96.84-21.1 95.99-21.1L95.99-21.1Q94.09-21.1 92.99-19.45 91.89-17.8 91.29-14.55L91.29-14.55 91.29 0 85.14 0 85.14-26.45 90.49-26.45 90.94-21.85Q92.79-27.1 96.79-27.1L96.79-27.1ZM120.54-13.85Q120.54-13.4 120.39-11.3L120.39-11.3 106.74-11.3Q106.94-7.2 108.17-5.58 109.39-3.95 111.64-3.95L111.64-3.95Q113.19-3.95 114.44-4.48 115.69-5 117.14-6.15L117.14-6.15 119.69-2.65Q116.19 0.75 111.29 0.75L111.29 0.75Q106.09 0.75 103.32-2.85 100.54-6.45 100.54-13L100.54-13Q100.54-19.55 103.19-23.35 105.84-27.15 110.69-27.15L110.69-27.15Q115.34-27.15 117.94-23.78 120.54-20.4 120.54-13.85L120.54-13.85ZM114.54-15.3L114.54-15.65Q114.54-19.4 113.64-21.13 112.74-22.85 110.74-22.85L110.74-22.85Q108.89-22.85 107.92-21.18 106.94-19.5 106.74-15.3L106.74-15.3 114.54-15.3ZM160.89-34.55L163.09 0 157.04 0 156.44-14.6Q156.14-22.6 156.14-26L156.14-26 156.19-28.6 151.44-3.8 145.44-3.8 140.49-28.65Q140.54-27.15 140.54-24.05L140.54-24.05Q140.54-18.8 140.34-14.4L140.34-14.4 139.79 0 133.84 0 136.04-34.55 144.04-34.55 148.54-10.2 152.74-34.55 160.89-34.55ZM186.03-26.45L186.03 0 180.68 0 180.38-3.35Q179.13-1.3 177.58-0.28 176.03 0.75 173.98 0.75L173.98 0.75Q171.08 0.75 169.41-1.3 167.73-3.35 167.73-6.65L167.73-6.65 167.73-26.45 173.88-26.45 173.88-7Q173.88-3.9 175.98-3.9L175.98-3.9Q177.18-3.9 178.13-4.83 179.08-5.75 179.88-7.45L179.88-7.45 179.88-26.45 186.03-26.45ZM199.08-27.15Q203.78-27.15 207.03-24.05L207.03-24.05 204.68-20.7Q203.28-21.7 202.03-22.2 200.78-22.7 199.48-22.7L199.48-22.7Q198.03-22.7 197.21-21.93 196.38-21.15 196.38-19.8L196.38-19.8Q196.38-18.45 197.31-17.63 198.23-16.8 201.03-15.7L201.03-15.7Q204.48-14.35 206.13-12.5 207.78-10.65 207.78-7.55L207.78-7.55Q207.78-3.7 205.08-1.48 202.38 0.75 198.23 0.75L198.23 0.75Q195.53 0.75 193.26-0.23 190.98-1.2 189.28-2.95L189.28-2.95 192.28-6.25Q195.08-3.8 197.98-3.8L197.98-3.8Q199.63-3.8 200.58-4.67 201.53-5.55 201.53-7.1L201.53-7.1Q201.53-8.25 201.13-8.97 200.73-9.7 199.73-10.33 198.73-10.95 196.73-11.7L196.73-11.7Q193.28-13.05 191.81-14.85 190.33-16.65 190.33-19.45L190.33-19.45Q190.33-22.8 192.71-24.98 195.08-27.15 199.08-27.15L199.08-27.15ZM211.63-26.45L217.78-26.45 217.78 0 211.63 0 211.63-26.45ZM214.68-39.65Q216.33-39.65 217.35-38.6 218.38-37.55 218.38-35.9L218.38-35.9Q218.38-34.3 217.35-33.25 216.33-32.2 214.68-32.2L214.68-32.2Q213.03-32.2 212-33.25 210.98-34.3 210.98-35.9L210.98-35.9Q210.98-37.55 212-38.6 213.03-39.65 214.68-39.65L214.68-39.65ZM232.98-27.15Q235.13-27.15 236.88-26.43 238.63-25.7 240.23-24.15L240.23-24.15 237.58-20.65Q236.48-21.55 235.5-21.98 234.53-22.4 233.38-22.4L233.38-22.4Q231.13-22.4 229.98-20.28 228.83-18.15 228.83-13.1L228.83-13.1Q228.83-8.2 230-6.2 231.18-4.2 233.38-4.2L233.38-4.2Q234.48-4.2 235.38-4.6 236.28-5 237.48-5.85L237.48-5.85 240.23-2.3Q237.03 0.75 233.08 0.75L233.08 0.75Q227.98 0.75 225.15-2.73 222.33-6.2 222.33-13L222.33-13Q222.33-17.4 223.63-20.6 224.93-23.8 227.35-25.48 229.78-27.15 232.98-27.15L232.98-27.15ZM279.32-34.55L281.52 0 275.47 0 274.87-14.6Q274.57-22.6 274.57-26L274.57-26 274.62-28.6 269.87-3.8 263.87-3.8 258.92-28.65Q258.97-27.15 258.97-24.05L258.97-24.05Q258.97-18.8 258.77-14.4L258.77-14.4 258.22 0 252.27 0 254.47-34.55 262.47-34.55 266.97-10.2 271.17-34.55 279.32-34.55ZM305.17-13.85Q305.17-13.4 305.02-11.3L305.02-11.3 291.37-11.3Q291.57-7.2 292.79-5.58 294.02-3.95 296.27-3.95L296.27-3.95Q297.82-3.95 299.07-4.48 300.32-5 301.77-6.15L301.77-6.15 304.32-2.65Q300.82 0.75 295.92 0.75L295.92 0.75Q290.72 0.75 287.94-2.85 285.17-6.45 285.17-13L285.17-13Q285.17-19.55 287.82-23.35 290.47-27.15 295.32-27.15L295.32-27.15Q299.97-27.15 302.57-23.78 305.17-20.4 305.17-13.85L305.17-13.85ZM299.17-15.3L299.17-15.65Q299.17-19.4 298.27-21.13 297.37-22.85 295.37-22.85L295.37-22.85Q293.52-22.85 292.54-21.18 291.57-19.5 291.37-15.3L291.37-15.3 299.17-15.3ZM328.31-13.85Q328.31-13.4 328.17-11.3L328.17-11.3 314.51-11.3Q314.72-7.2 315.94-5.58 317.17-3.95 319.42-3.95L319.42-3.95Q320.97-3.95 322.22-4.48 323.47-5 324.92-6.15L324.92-6.15 327.47-2.65Q323.97 0.75 319.06 0.75L319.06 0.75Q313.87 0.75 311.09-2.85 308.31-6.45 308.31-13L308.31-13Q308.31-19.55 310.97-23.35 313.62-27.15 318.47-27.15L318.47-27.15Q323.12-27.15 325.72-23.78 328.31-20.4 328.31-13.85L328.31-13.85ZM322.31-15.3L322.31-15.65Q322.31-19.4 321.42-21.13 320.51-22.85 318.51-22.85L318.51-22.85Q316.67-22.85 315.69-21.18 314.72-19.5 314.51-15.3L314.51-15.3 322.31-15.3ZM343.76-5L345.91-1.2Q343.46 0.75 340.16 0.75L340.16 0.75Q336.71 0.75 334.91-1.23 333.11-3.2 333.11-6.6L333.11-6.6 333.11-22 330.01-22 330.01-26.45 333.11-26.45 333.11-32.3 339.26-33.05 339.26-26.45 344.26-26.45 343.66-22 339.26-22 339.26-6.6Q339.26-4.2 341.31-4.2L341.31-4.2Q341.96-4.2 342.46-4.38 342.96-4.55 343.76-5L343.76-5ZM355.81-27.15Q360.51-27.15 363.76-24.05L363.76-24.05 361.41-20.7Q360.01-21.7 358.76-22.2 357.51-22.7 356.21-22.7L356.21-22.7Q354.76-22.7 353.94-21.93 353.11-21.15 353.11-19.8L353.11-19.8Q353.11-18.45 354.04-17.63 354.96-16.8 357.76-15.7L357.76-15.7Q361.21-14.35 362.86-12.5 364.51-10.65 364.51-7.55L364.51-7.55Q364.51-3.7 361.81-1.48 359.11 0.75 354.96 0.75L354.96 0.75Q352.26 0.75 349.99-0.23 347.71-1.2 346.01-2.95L346.01-2.95 349.01-6.25Q351.81-3.8 354.71-3.8L354.71-3.8Q356.36-3.8 357.31-4.67 358.26-5.55 358.26-7.1L358.26-7.1Q358.26-8.25 357.86-8.97 357.46-9.7 356.46-10.33 355.46-10.95 353.46-11.7L353.46-11.7Q350.01-13.05 348.54-14.85 347.06-16.65 347.06-19.45L347.06-19.45Q347.06-22.8 349.44-24.98 351.81-27.15 355.81-27.15L355.81-27.15ZM384.71 0L378.36 0 378.36-34.55 395.06-34.55 394.36-29.8 384.71-29.8 384.71-19.25 393.11-19.25 393.11-14.5 384.71-14.5 384.71 0ZM410-27.1Q411.15-27.1 412.05-26.75L412.05-26.75 411.05-20.85Q410.05-21.1 409.2-21.1L409.2-21.1Q407.3-21.1 406.2-19.45 405.1-17.8 404.5-14.55L404.5-14.55 404.5 0 398.35 0 398.35-26.45 403.7-26.45 404.15-21.85Q406-27.1 410-27.1L410-27.1ZM433.75-13.85Q433.75-13.4 433.6-11.3L433.6-11.3 419.95-11.3Q420.15-7.2 421.38-5.58 422.6-3.95 424.85-3.95L424.85-3.95Q426.4-3.95 427.65-4.48 428.9-5 430.35-6.15L430.35-6.15 432.9-2.65Q429.4 0.75 424.5 0.75L424.5 0.75Q419.3 0.75 416.53-2.85 413.75-6.45 413.75-13L413.75-13Q413.75-19.55 416.4-23.35 419.05-27.15 423.9-27.15L423.9-27.15Q428.55-27.15 431.15-23.78 433.75-20.4 433.75-13.85L433.75-13.85ZM427.75-15.3L427.75-15.65Q427.75-19.4 426.85-21.13 425.95-22.85 423.95-22.85L423.95-22.85Q422.1-22.85 421.13-21.18 420.15-19.5 419.95-15.3L419.95-15.3 427.75-15.3ZM456.9-13.85Q456.9-13.4 456.75-11.3L456.75-11.3 443.1-11.3Q443.3-7.2 444.52-5.58 445.75-3.95 448-3.95L448-3.95Q449.55-3.95 450.8-4.48 452.05-5 453.5-6.15L453.5-6.15 456.05-2.65Q452.55 0.75 447.65 0.75L447.65 0.75Q442.45 0.75 439.67-2.85 436.9-6.45 436.9-13L436.9-13Q436.9-19.55 439.55-23.35 442.2-27.15 447.05-27.15L447.05-27.15Q451.7-27.15 454.3-23.78 456.9-20.4 456.9-13.85L456.9-13.85ZM450.9-15.3L450.9-15.65Q450.9-19.4 450-21.13 449.1-22.85 447.1-22.85L447.1-22.85Q445.25-22.85 444.27-21.18 443.3-19.5 443.1-15.3L443.1-15.3 450.9-15.3ZM474.14-37.7L480.29-37.05 480.29 0 474.84 0 474.54-3.05Q472.19 0.75 468.49 0.75L468.49 0.75Q464.39 0.75 462.22-2.93 460.04-6.6 460.04-13.2L460.04-13.2Q460.04-17.4 461.17-20.58 462.29-23.75 464.29-25.45 466.29-27.15 468.89-27.15L468.89-27.15Q472.09-27.15 474.14-24.5L474.14-24.5 474.14-37.7ZM470.24-3.9Q471.39-3.9 472.32-4.7 473.24-5.5 474.14-7L474.14-7 474.14-19.85Q472.54-22.55 470.49-22.55L470.49-22.55Q466.44-22.55 466.44-13.25L466.44-13.25Q466.44-8.2 467.44-6.05 468.44-3.9 470.24-3.9L470.24-3.9ZM495.39-27.15Q500.39-27.15 503.17-23.65 505.94-20.15 505.94-13.25L505.94-13.25Q505.94-6.65 503.14-2.95 500.34 0.75 495.39 0.75L495.39 0.75Q490.44 0.75 487.64-2.88 484.84-6.5 484.84-13.25L484.84-13.25Q484.84-19.95 487.64-23.55 490.44-27.15 495.39-27.15L495.39-27.15ZM495.39-22.5Q493.24-22.5 492.24-20.38 491.24-18.25 491.24-13.25L491.24-13.25Q491.24-8.2 492.24-6.08 493.24-3.95 495.39-3.95L495.39-3.95Q497.54-3.95 498.54-6.08 499.54-8.2 499.54-13.25L499.54-13.25Q499.54-18.3 498.54-20.4 497.54-22.5 495.39-22.5L495.39-22.5ZM534.14-27.15Q536.79-27.15 538.39-25.1 539.99-23.05 539.99-19.6L539.99-19.6 539.99 0 533.94 0 533.94-18.95Q533.94-20.85 533.44-21.68 532.94-22.5 531.99-22.5L531.99-22.5Q530.04-22.5 528.24-18.8L528.24-18.8 528.24 0 522.24 0 522.24-18.95Q522.24-22.5 520.34-22.5L520.34-22.5Q518.29-22.5 516.54-18.8L516.54-18.8 516.54 0 510.49 0 510.49-26.45 515.84-26.45 516.24-23.05Q518.84-27.15 522.49-27.15L522.49-27.15Q524.34-27.15 525.69-26 527.04-24.85 527.74-22.75L527.74-22.75Q530.39-27.15 534.14-27.15L534.14-27.15Z" opacity="1" transform="matrix(1,0,0,1,0,0)" fill="black" class="slogan-text-1" id="SvgjsPath4288"></path></svg></g></svg></g></svg></g></svg></g></svg></g></svg></g></svg></g><g><path d="M0 123.6c0-68.262 55.338-123.6 123.6-123.6 49.114 0 91.537 28.646 111.473 70.141l-3.02 0c-19.729-39.95-60.883-67.428-108.453-67.427-66.764 0-120.886 54.123-120.886 120.886 0 66.764 54.123 120.886 120.886 120.886 47.571 0 88.724-27.478 108.453-67.427h3.02c-19.936 41.495-62.359 70.141-111.473 70.141-68.262 0-123.6-55.338-123.6-123.6z" fill="black" stroke="transparent"></path></g></svg></g><defs><mask></mask></defs></svg><rect width="395.52" height="247.2" fill="black" stroke="none" visibility="hidden"></rect></g></mask></svg><rect width="395.52" height="247.2" fill="black" stroke="none" visibility="hidden"></rect></g></mask><linearGradient x1="0" x2="1" y1="0.5" y2="0.5" id="a41715a2-0f36-42f4-a727-db7ca5e72a2d"><stop stop-color="#f00b51" offset="0"></stop><stop stop-color="#730062" offset="1"></stop></linearGradient><rect width="395.52" height="247.2" fill="url(#a41715a2-0f36-42f4-a727-db7ca5e72a2d)" mask="url(#1a31297c-0404-404d-8cc3-e23018b41ed6)" data-fill-palette-color="secondary"></rect><mask id="dd3d0640-da41-4514-be7e-dec79b1e0416"><g id="SvgjsG4331"><svg viewBox="0 0 395.52 247.2" height="247.2" width="395.52"><g><svg></svg></g><g><svg viewBox="0 0 395.52 247.2" height="247.2" width="395.52"><g transform="matrix(1,0,0,1,75.54432,77.24612182395565)"><svg viewBox="0 0 244.43135999999998 92.7077563520887" height="92.7077563520887" width="244.43135999999998"><g><svg viewBox="0 0 244.43135999999998 92.7077563520887" height="92.7077563520887" width="244.43135999999998"><g><svg viewBox="0 0 244.43135999999998 92.7077563520887" height="92.7077563520887" width="244.43135999999998"><g><svg viewBox="0 0 244.43135999999998 92.7077563520887" height="92.7077563520887" width="244.43135999999998"><g id="SvgjsG4330"><svg viewBox="0 0 244.43135999999998 92.7077563520887" height="92.7077563520887" width="244.43135999999998" id="SvgjsSvg4329"><g><svg viewBox="0 0 244.43135999999998 60.1893659098177" height="60.1893659098177" width="244.43135999999998"><g transform="matrix(1,0,0,1,0,0)"><svg width="244.43135999999998" viewBox="2.55 -38 156.33999999999997 38.50000000000001" height="60.1893659098177" data-palette-color="url(#7554172d-4288-4e5f-96a5-b3d6bf4f67de)"></svg></g></svg></g><g transform="matrix(1,0,0,1,0,74.39863065634383)"><svg viewBox="0 0 244.43135999999998 18.30912569574488" height="18.30912569574488" width="244.43135999999998"><g transform="matrix(1,0,0,1,0,0)"><svg width="244.43135999999998" viewBox="0.7 -39.65 539.29 40.4" height="18.30912569574488" data-palette-color="url(#a41715a2-0f36-42f4-a727-db7ca5e72a2d)"></svg></g></svg></g></svg></g></svg></g></svg></g></svg></g></svg></g><g><path d="M0 123.6c0-68.262 55.338-123.6 123.6-123.6 49.114 0 91.537 28.646 111.473 70.141l-3.02 0c-19.729-39.95-60.883-67.428-108.453-67.427-66.764 0-120.886 54.123-120.886 120.886 0 66.764 54.123 120.886 120.886 120.886 47.571 0 88.724-27.478 108.453-67.427h3.02c-19.936 41.495-62.359 70.141-111.473 70.141-68.262 0-123.6-55.338-123.6-123.6z" fill="white" stroke="transparent"></path></g></svg></g><defs><mask></mask></defs><mask><g id="SvgjsG4328"><svg viewBox="0 0 395.52 247.2" height="247.2" width="395.52"><g><svg></svg></g><g><svg viewBox="0 0 395.52 247.2" height="247.2" width="395.52"><g transform="matrix(1,0,0,1,75.54432,77.24612182395565)"><svg viewBox="0 0 244.43135999999998 92.7077563520887" height="92.7077563520887" width="244.43135999999998"><g><svg viewBox="0 0 244.43135999999998 92.7077563520887" height="92.7077563520887" width="244.43135999999998"><g><svg viewBox="0 0 244.43135999999998 92.7077563520887" height="92.7077563520887" width="244.43135999999998"><g><svg viewBox="0 0 244.43135999999998 92.7077563520887" height="92.7077563520887" width="244.43135999999998"><g id="SvgjsG4327"><svg viewBox="0 0 244.43135999999998 92.7077563520887" height="92.7077563520887" width="244.43135999999998" id="SvgjsSvg4326"><g><svg viewBox="0 0 244.43135999999998 60.1893659098177" height="60.1893659098177" width="244.43135999999998"><g transform="matrix(1,0,0,1,0,0)"><svg width="244.43135999999998" viewBox="2.55 -38 156.33999999999997 38.50000000000001" height="60.1893659098177" data-palette-color="url(#7554172d-4288-4e5f-96a5-b3d6bf4f67de)"><path d="M25.1-9.55L25.1-9.55Q25.1-6.35 23.55-4.13 22-1.9 19.13-0.7 16.25 0.5 12.35 0.5L12.35 0.5Q10.35 0.5 8.53 0.3 6.7 0.1 5.2-0.28 3.7-0.65 2.55-1.2L2.55-1.2 2.55-5.5Q4.35-4.7 7.03-4.05 9.7-3.4 12.55-3.4L12.55-3.4Q15.2-3.4 17-4.1 18.8-4.8 19.7-6.1 20.6-7.4 20.6-9.15L20.6-9.15Q20.6-10.9 19.85-12.1 19.1-13.3 17.28-14.33 15.45-15.35 12.2-16.5L12.2-16.5Q9.9-17.35 8.18-18.32 6.45-19.3 5.3-20.55 4.15-21.8 3.58-23.4 3-25 3-27.1L3-27.1Q3-29.95 4.45-31.98 5.9-34 8.47-35.1 11.05-36.2 14.4-36.2L14.4-36.2Q17.35-36.2 19.8-35.65 22.25-35.1 24.25-34.2L24.25-34.2 22.85-30.35Q21-31.15 18.82-31.7 16.65-32.25 14.3-32.25L14.3-32.25Q12.05-32.25 10.55-31.6 9.05-30.95 8.3-29.78 7.55-28.6 7.55-27.05L7.55-27.05Q7.55-25.25 8.3-24.05 9.05-22.85 10.75-21.9 12.45-20.95 15.35-19.85L15.35-19.85Q18.5-18.7 20.68-17.38 22.85-16.05 23.98-14.2 25.1-12.35 25.1-9.55ZM55-13.45L55-13.45Q55-10.1 54.12-7.53 53.25-4.95 51.62-3.15 50-1.35 47.67-0.43 45.35 0.5 42.5 0.5L42.5 0.5Q39.85 0.5 37.6-0.43 35.35-1.35 33.7-3.15 32.05-4.95 31.12-7.53 30.2-10.1 30.2-13.45L30.2-13.45Q30.2-17.9 31.7-20.98 33.2-24.05 36-25.68 38.8-27.3 42.65-27.3L42.65-27.3Q46.3-27.3 49.07-25.68 51.85-24.05 53.42-20.98 55-17.9 55-13.45ZM34.75-13.45L34.75-13.45Q34.75-10.3 35.57-7.98 36.4-5.65 38.15-4.4 39.9-3.15 42.6-3.15L42.6-3.15Q45.3-3.15 47.05-4.4 48.8-5.65 49.62-7.98 50.45-10.3 50.45-13.45L50.45-13.45Q50.45-16.65 49.6-18.9 48.75-21.15 47.02-22.38 45.3-23.6 42.55-23.6L42.55-23.6Q38.45-23.6 36.6-20.9 34.75-18.2 34.75-13.45ZM66.35-38L66.35 0 61.95 0 61.95-38 66.35-38ZM75.44-35.7L85.64-35.7Q92.34-35.7 95.77-33.73 99.19-31.75 99.19-26.85L99.19-26.85Q99.19-24.75 98.42-23.13 97.64-21.5 96.12-20.43 94.59-19.35 92.39-18.95L92.39-18.95 92.39-18.7Q94.64-18.35 96.47-17.4 98.29-16.45 99.34-14.7 100.39-12.95 100.39-10.15L100.39-10.15Q100.39-6.9 98.89-4.63 97.39-2.35 94.62-1.18 91.84 0 87.99 0L87.99 0 75.44 0 75.44-35.7ZM79.94-20.5L86.54-20.5Q91.14-20.5 92.84-21.98 94.54-23.45 94.54-26.35L94.54-26.35Q94.54-29.3 92.47-30.58 90.39-31.85 85.84-31.85L85.84-31.85 79.94-31.85 79.94-20.5ZM86.79-16.75L79.94-16.75 79.94-3.8 87.14-3.8Q91.89-3.8 93.74-5.65 95.59-7.5 95.59-10.5L95.59-10.5Q95.59-12.4 94.77-13.8 93.94-15.2 92.02-15.98 90.09-16.75 86.79-16.75L86.79-16.75ZM130.64-13.45L130.64-13.45Q130.64-10.1 129.77-7.53 128.89-4.95 127.27-3.15 125.64-1.35 123.32-0.43 120.99 0.5 118.14 0.5L118.14 0.5Q115.49 0.5 113.24-0.43 110.99-1.35 109.34-3.15 107.69-4.95 106.77-7.53 105.84-10.1 105.84-13.45L105.84-13.45Q105.84-17.9 107.34-20.98 108.84-24.05 111.64-25.68 114.44-27.3 118.29-27.3L118.29-27.3Q121.94-27.3 124.72-25.68 127.49-24.05 129.07-20.98 130.64-17.9 130.64-13.45ZM110.39-13.45L110.39-13.45Q110.39-10.3 111.22-7.98 112.04-5.65 113.79-4.4 115.54-3.15 118.24-3.15L118.24-3.15Q120.94-3.15 122.69-4.4 124.44-5.65 125.27-7.98 126.09-10.3 126.09-13.45L126.09-13.45Q126.09-16.65 125.24-18.9 124.39-21.15 122.67-22.38 120.94-23.6 118.19-23.6L118.19-23.6Q114.09-23.6 112.24-20.9 110.39-18.2 110.39-13.45ZM134.24 0L143.94-13.7 134.69-26.8 139.69-26.8 146.59-16.7 153.44-26.8 158.39-26.8 149.14-13.7 158.89 0 153.89 0 146.59-10.7 139.19 0 134.24 0Z" opacity="1" transform="matrix(1,0,0,1,0,0)" fill="black" class="wordmark-text-0" id="SvgjsPath4325"></path></svg></g></svg></g><g transform="matrix(1,0,0,1,0,74.39863065634383)"><svg viewBox="0 0 244.43135999999998 18.30912569574488" height="18.30912569574488" width="244.43135999999998"><g transform="matrix(1,0,0,1,0,0)"><svg width="244.43135999999998" viewBox="0.7 -39.65 539.29 40.4" height="18.30912569574488" data-palette-color="url(#a41715a2-0f36-42f4-a727-db7ca5e72a2d)"><path d="M28.5-34.55L34.4-34.55 29.55 0 21.2 0 17.5-27.8 13.65 0 5.45 0 0.7-34.55 6.85-34.55 10.05-5.1 14.2-34.55 20.95-34.55 25-5.1 28.5-34.55ZM50.3-27.15Q53.15-27.15 54.8-25.1 56.45-23.05 56.45-19.6L56.45-19.6 56.45 0 50.3 0 50.3-18.9Q50.3-20.8 49.77-21.63 49.25-22.45 48.25-22.45L48.25-22.45Q46.15-22.45 44.1-18.5L44.1-18.5 44.1 0 37.95 0 37.95-37 44.1-37.65 44.1-23.3Q45.35-25.25 46.82-26.2 48.3-27.15 50.3-27.15L50.3-27.15ZM80.85-13.85Q80.85-13.4 80.7-11.3L80.7-11.3 67.05-11.3Q67.25-7.2 68.47-5.58 69.7-3.95 71.95-3.95L71.95-3.95Q73.5-3.95 74.75-4.48 76-5 77.45-6.15L77.45-6.15 80-2.65Q76.5 0.75 71.6 0.75L71.6 0.75Q66.4 0.75 63.62-2.85 60.85-6.45 60.85-13L60.85-13Q60.85-19.55 63.5-23.35 66.15-27.15 71-27.15L71-27.15Q75.65-27.15 78.25-23.78 80.85-20.4 80.85-13.85L80.85-13.85ZM74.85-15.3L74.85-15.65Q74.85-19.4 73.95-21.13 73.05-22.85 71.05-22.85L71.05-22.85Q69.2-22.85 68.22-21.18 67.25-19.5 67.05-15.3L67.05-15.3 74.85-15.3ZM96.79-27.1Q97.94-27.1 98.84-26.75L98.84-26.75 97.84-20.85Q96.84-21.1 95.99-21.1L95.99-21.1Q94.09-21.1 92.99-19.45 91.89-17.8 91.29-14.55L91.29-14.55 91.29 0 85.14 0 85.14-26.45 90.49-26.45 90.94-21.85Q92.79-27.1 96.79-27.1L96.79-27.1ZM120.54-13.85Q120.54-13.4 120.39-11.3L120.39-11.3 106.74-11.3Q106.94-7.2 108.17-5.58 109.39-3.95 111.64-3.95L111.64-3.95Q113.19-3.95 114.44-4.48 115.69-5 117.14-6.15L117.14-6.15 119.69-2.65Q116.19 0.75 111.29 0.75L111.29 0.75Q106.09 0.75 103.32-2.85 100.54-6.45 100.54-13L100.54-13Q100.54-19.55 103.19-23.35 105.84-27.15 110.69-27.15L110.69-27.15Q115.34-27.15 117.94-23.78 120.54-20.4 120.54-13.85L120.54-13.85ZM114.54-15.3L114.54-15.65Q114.54-19.4 113.64-21.13 112.74-22.85 110.74-22.85L110.74-22.85Q108.89-22.85 107.92-21.18 106.94-19.5 106.74-15.3L106.74-15.3 114.54-15.3ZM160.89-34.55L163.09 0 157.04 0 156.44-14.6Q156.14-22.6 156.14-26L156.14-26 156.19-28.6 151.44-3.8 145.44-3.8 140.49-28.65Q140.54-27.15 140.54-24.05L140.54-24.05Q140.54-18.8 140.34-14.4L140.34-14.4 139.79 0 133.84 0 136.04-34.55 144.04-34.55 148.54-10.2 152.74-34.55 160.89-34.55ZM186.03-26.45L186.03 0 180.68 0 180.38-3.35Q179.13-1.3 177.58-0.28 176.03 0.75 173.98 0.75L173.98 0.75Q171.08 0.75 169.41-1.3 167.73-3.35 167.73-6.65L167.73-6.65 167.73-26.45 173.88-26.45 173.88-7Q173.88-3.9 175.98-3.9L175.98-3.9Q177.18-3.9 178.13-4.83 179.08-5.75 179.88-7.45L179.88-7.45 179.88-26.45 186.03-26.45ZM199.08-27.15Q203.78-27.15 207.03-24.05L207.03-24.05 204.68-20.7Q203.28-21.7 202.03-22.2 200.78-22.7 199.48-22.7L199.48-22.7Q198.03-22.7 197.21-21.93 196.38-21.15 196.38-19.8L196.38-19.8Q196.38-18.45 197.31-17.63 198.23-16.8 201.03-15.7L201.03-15.7Q204.48-14.35 206.13-12.5 207.78-10.65 207.78-7.55L207.78-7.55Q207.78-3.7 205.08-1.48 202.38 0.75 198.23 0.75L198.23 0.75Q195.53 0.75 193.26-0.23 190.98-1.2 189.28-2.95L189.28-2.95 192.28-6.25Q195.08-3.8 197.98-3.8L197.98-3.8Q199.63-3.8 200.58-4.67 201.53-5.55 201.53-7.1L201.53-7.1Q201.53-8.25 201.13-8.97 200.73-9.7 199.73-10.33 198.73-10.95 196.73-11.7L196.73-11.7Q193.28-13.05 191.81-14.85 190.33-16.65 190.33-19.45L190.33-19.45Q190.33-22.8 192.71-24.98 195.08-27.15 199.08-27.15L199.08-27.15ZM211.63-26.45L217.78-26.45 217.78 0 211.63 0 211.63-26.45ZM214.68-39.65Q216.33-39.65 217.35-38.6 218.38-37.55 218.38-35.9L218.38-35.9Q218.38-34.3 217.35-33.25 216.33-32.2 214.68-32.2L214.68-32.2Q213.03-32.2 212-33.25 210.98-34.3 210.98-35.9L210.98-35.9Q210.98-37.55 212-38.6 213.03-39.65 214.68-39.65L214.68-39.65ZM232.98-27.15Q235.13-27.15 236.88-26.43 238.63-25.7 240.23-24.15L240.23-24.15 237.58-20.65Q236.48-21.55 235.5-21.98 234.53-22.4 233.38-22.4L233.38-22.4Q231.13-22.4 229.98-20.28 228.83-18.15 228.83-13.1L228.83-13.1Q228.83-8.2 230-6.2 231.18-4.2 233.38-4.2L233.38-4.2Q234.48-4.2 235.38-4.6 236.28-5 237.48-5.85L237.48-5.85 240.23-2.3Q237.03 0.75 233.08 0.75L233.08 0.75Q227.98 0.75 225.15-2.73 222.33-6.2 222.33-13L222.33-13Q222.33-17.4 223.63-20.6 224.93-23.8 227.35-25.48 229.78-27.15 232.98-27.15L232.98-27.15ZM279.32-34.55L281.52 0 275.47 0 274.87-14.6Q274.57-22.6 274.57-26L274.57-26 274.62-28.6 269.87-3.8 263.87-3.8 258.92-28.65Q258.97-27.15 258.97-24.05L258.97-24.05Q258.97-18.8 258.77-14.4L258.77-14.4 258.22 0 252.27 0 254.47-34.55 262.47-34.55 266.97-10.2 271.17-34.55 279.32-34.55ZM305.17-13.85Q305.17-13.4 305.02-11.3L305.02-11.3 291.37-11.3Q291.57-7.2 292.79-5.58 294.02-3.95 296.27-3.95L296.27-3.95Q297.82-3.95 299.07-4.48 300.32-5 301.77-6.15L301.77-6.15 304.32-2.65Q300.82 0.75 295.92 0.75L295.92 0.75Q290.72 0.75 287.94-2.85 285.17-6.45 285.17-13L285.17-13Q285.17-19.55 287.82-23.35 290.47-27.15 295.32-27.15L295.32-27.15Q299.97-27.15 302.57-23.78 305.17-20.4 305.17-13.85L305.17-13.85ZM299.17-15.3L299.17-15.65Q299.17-19.4 298.27-21.13 297.37-22.85 295.37-22.85L295.37-22.85Q293.52-22.85 292.54-21.18 291.57-19.5 291.37-15.3L291.37-15.3 299.17-15.3ZM328.31-13.85Q328.31-13.4 328.17-11.3L328.17-11.3 314.51-11.3Q314.72-7.2 315.94-5.58 317.17-3.95 319.42-3.95L319.42-3.95Q320.97-3.95 322.22-4.48 323.47-5 324.92-6.15L324.92-6.15 327.47-2.65Q323.97 0.75 319.06 0.75L319.06 0.75Q313.87 0.75 311.09-2.85 308.31-6.45 308.31-13L308.31-13Q308.31-19.55 310.97-23.35 313.62-27.15 318.47-27.15L318.47-27.15Q323.12-27.15 325.72-23.78 328.31-20.4 328.31-13.85L328.31-13.85ZM322.31-15.3L322.31-15.65Q322.31-19.4 321.42-21.13 320.51-22.85 318.51-22.85L318.51-22.85Q316.67-22.85 315.69-21.18 314.72-19.5 314.51-15.3L314.51-15.3 322.31-15.3ZM343.76-5L345.91-1.2Q343.46 0.75 340.16 0.75L340.16 0.75Q336.71 0.75 334.91-1.23 333.11-3.2 333.11-6.6L333.11-6.6 333.11-22 330.01-22 330.01-26.45 333.11-26.45 333.11-32.3 339.26-33.05 339.26-26.45 344.26-26.45 343.66-22 339.26-22 339.26-6.6Q339.26-4.2 341.31-4.2L341.31-4.2Q341.96-4.2 342.46-4.38 342.96-4.55 343.76-5L343.76-5ZM355.81-27.15Q360.51-27.15 363.76-24.05L363.76-24.05 361.41-20.7Q360.01-21.7 358.76-22.2 357.51-22.7 356.21-22.7L356.21-22.7Q354.76-22.7 353.94-21.93 353.11-21.15 353.11-19.8L353.11-19.8Q353.11-18.45 354.04-17.63 354.96-16.8 357.76-15.7L357.76-15.7Q361.21-14.35 362.86-12.5 364.51-10.65 364.51-7.55L364.51-7.55Q364.51-3.7 361.81-1.48 359.11 0.75 354.96 0.75L354.96 0.75Q352.26 0.75 349.99-0.23 347.71-1.2 346.01-2.95L346.01-2.95 349.01-6.25Q351.81-3.8 354.71-3.8L354.71-3.8Q356.36-3.8 357.31-4.67 358.26-5.55 358.26-7.1L358.26-7.1Q358.26-8.25 357.86-8.97 357.46-9.7 356.46-10.33 355.46-10.95 353.46-11.7L353.46-11.7Q350.01-13.05 348.54-14.85 347.06-16.65 347.06-19.45L347.06-19.45Q347.06-22.8 349.44-24.98 351.81-27.15 355.81-27.15L355.81-27.15ZM384.71 0L378.36 0 378.36-34.55 395.06-34.55 394.36-29.8 384.71-29.8 384.71-19.25 393.11-19.25 393.11-14.5 384.71-14.5 384.71 0ZM410-27.1Q411.15-27.1 412.05-26.75L412.05-26.75 411.05-20.85Q410.05-21.1 409.2-21.1L409.2-21.1Q407.3-21.1 406.2-19.45 405.1-17.8 404.5-14.55L404.5-14.55 404.5 0 398.35 0 398.35-26.45 403.7-26.45 404.15-21.85Q406-27.1 410-27.1L410-27.1ZM433.75-13.85Q433.75-13.4 433.6-11.3L433.6-11.3 419.95-11.3Q420.15-7.2 421.38-5.58 422.6-3.95 424.85-3.95L424.85-3.95Q426.4-3.95 427.65-4.48 428.9-5 430.35-6.15L430.35-6.15 432.9-2.65Q429.4 0.75 424.5 0.75L424.5 0.75Q419.3 0.75 416.53-2.85 413.75-6.45 413.75-13L413.75-13Q413.75-19.55 416.4-23.35 419.05-27.15 423.9-27.15L423.9-27.15Q428.55-27.15 431.15-23.78 433.75-20.4 433.75-13.85L433.75-13.85ZM427.75-15.3L427.75-15.65Q427.75-19.4 426.85-21.13 425.95-22.85 423.95-22.85L423.95-22.85Q422.1-22.85 421.13-21.18 420.15-19.5 419.95-15.3L419.95-15.3 427.75-15.3ZM456.9-13.85Q456.9-13.4 456.75-11.3L456.75-11.3 443.1-11.3Q443.3-7.2 444.52-5.58 445.75-3.95 448-3.95L448-3.95Q449.55-3.95 450.8-4.48 452.05-5 453.5-6.15L453.5-6.15 456.05-2.65Q452.55 0.75 447.65 0.75L447.65 0.75Q442.45 0.75 439.67-2.85 436.9-6.45 436.9-13L436.9-13Q436.9-19.55 439.55-23.35 442.2-27.15 447.05-27.15L447.05-27.15Q451.7-27.15 454.3-23.78 456.9-20.4 456.9-13.85L456.9-13.85ZM450.9-15.3L450.9-15.65Q450.9-19.4 450-21.13 449.1-22.85 447.1-22.85L447.1-22.85Q445.25-22.85 444.27-21.18 443.3-19.5 443.1-15.3L443.1-15.3 450.9-15.3ZM474.14-37.7L480.29-37.05 480.29 0 474.84 0 474.54-3.05Q472.19 0.75 468.49 0.75L468.49 0.75Q464.39 0.75 462.22-2.93 460.04-6.6 460.04-13.2L460.04-13.2Q460.04-17.4 461.17-20.58 462.29-23.75 464.29-25.45 466.29-27.15 468.89-27.15L468.89-27.15Q472.09-27.15 474.14-24.5L474.14-24.5 474.14-37.7ZM470.24-3.9Q471.39-3.9 472.32-4.7 473.24-5.5 474.14-7L474.14-7 474.14-19.85Q472.54-22.55 470.49-22.55L470.49-22.55Q466.44-22.55 466.44-13.25L466.44-13.25Q466.44-8.2 467.44-6.05 468.44-3.9 470.24-3.9L470.24-3.9ZM495.39-27.15Q500.39-27.15 503.17-23.65 505.94-20.15 505.94-13.25L505.94-13.25Q505.94-6.65 503.14-2.95 500.34 0.75 495.39 0.75L495.39 0.75Q490.44 0.75 487.64-2.88 484.84-6.5 484.84-13.25L484.84-13.25Q484.84-19.95 487.64-23.55 490.44-27.15 495.39-27.15L495.39-27.15ZM495.39-22.5Q493.24-22.5 492.24-20.38 491.24-18.25 491.24-13.25L491.24-13.25Q491.24-8.2 492.24-6.08 493.24-3.95 495.39-3.95L495.39-3.95Q497.54-3.95 498.54-6.08 499.54-8.2 499.54-13.25L499.54-13.25Q499.54-18.3 498.54-20.4 497.54-22.5 495.39-22.5L495.39-22.5ZM534.14-27.15Q536.79-27.15 538.39-25.1 539.99-23.05 539.99-19.6L539.99-19.6 539.99 0 533.94 0 533.94-18.95Q533.94-20.85 533.44-21.68 532.94-22.5 531.99-22.5L531.99-22.5Q530.04-22.5 528.24-18.8L528.24-18.8 528.24 0 522.24 0 522.24-18.95Q522.24-22.5 520.34-22.5L520.34-22.5Q518.29-22.5 516.54-18.8L516.54-18.8 516.54 0 510.49 0 510.49-26.45 515.84-26.45 516.24-23.05Q518.84-27.15 522.49-27.15L522.49-27.15Q524.34-27.15 525.69-26 527.04-24.85 527.74-22.75L527.74-22.75Q530.39-27.15 534.14-27.15L534.14-27.15Z" opacity="1" transform="matrix(1,0,0,1,0,0)" fill="black" class="slogan-text-1" id="SvgjsPath4324"></path></svg></g></svg></g></svg></g></svg></g></svg></g></svg></g></svg></g><g><path d="M0 123.6c0-68.262 55.338-123.6 123.6-123.6 49.114 0 91.537 28.646 111.473 70.141l-3.02 0c-19.729-39.95-60.883-67.428-108.453-67.427-66.764 0-120.886 54.123-120.886 120.886 0 66.764 54.123 120.886 120.886 120.886 47.571 0 88.724-27.478 108.453-67.427h3.02c-19.936 41.495-62.359 70.141-111.473 70.141-68.262 0-123.6-55.338-123.6-123.6z" fill="black" stroke="transparent"></path></g></svg></g><defs><mask></mask></defs></svg><rect width="395.52" height="247.2" fill="black" stroke="none" visibility="hidden"></rect></g></mask><mask><g id="SvgjsG4323"><svg viewBox="0 0 395.52 247.2" height="247.2" width="395.52"><g><svg></svg></g><g><svg viewBox="0 0 395.52 247.2" height="247.2" width="395.52"><g transform="matrix(1,0,0,1,75.54432,77.24612182395565)"><svg viewBox="0 0 244.43135999999998 92.7077563520887" height="92.7077563520887" width="244.43135999999998"><g><svg viewBox="0 0 244.43135999999998 92.7077563520887" height="92.7077563520887" width="244.43135999999998"><g><svg viewBox="0 0 244.43135999999998 92.7077563520887" height="92.7077563520887" width="244.43135999999998"><g><svg viewBox="0 0 244.43135999999998 92.7077563520887" height="92.7077563520887" width="244.43135999999998"><g id="SvgjsG4322"><svg viewBox="0 0 244.43135999999998 92.7077563520887" height="92.7077563520887" width="244.43135999999998" id="SvgjsSvg4321"><g><svg viewBox="0 0 244.43135999999998 60.1893659098177" height="60.1893659098177" width="244.43135999999998"><g transform="matrix(1,0,0,1,0,0)"><svg width="244.43135999999998" viewBox="2.55 -38 156.33999999999997 38.50000000000001" height="60.1893659098177" data-palette-color="url(#7554172d-4288-4e5f-96a5-b3d6bf4f67de)"></svg></g></svg></g><g transform="matrix(1,0,0,1,0,74.39863065634383)"><svg viewBox="0 0 244.43135999999998 18.30912569574488" height="18.30912569574488" width="244.43135999999998"><g transform="matrix(1,0,0,1,0,0)"><svg width="244.43135999999998" viewBox="0.7 -39.65 539.29 40.4" height="18.30912569574488" data-palette-color="url(#a41715a2-0f36-42f4-a727-db7ca5e72a2d)"><path d="M28.5-34.55L34.4-34.55 29.55 0 21.2 0 17.5-27.8 13.65 0 5.45 0 0.7-34.55 6.85-34.55 10.05-5.1 14.2-34.55 20.95-34.55 25-5.1 28.5-34.55ZM50.3-27.15Q53.15-27.15 54.8-25.1 56.45-23.05 56.45-19.6L56.45-19.6 56.45 0 50.3 0 50.3-18.9Q50.3-20.8 49.77-21.63 49.25-22.45 48.25-22.45L48.25-22.45Q46.15-22.45 44.1-18.5L44.1-18.5 44.1 0 37.95 0 37.95-37 44.1-37.65 44.1-23.3Q45.35-25.25 46.82-26.2 48.3-27.15 50.3-27.15L50.3-27.15ZM80.85-13.85Q80.85-13.4 80.7-11.3L80.7-11.3 67.05-11.3Q67.25-7.2 68.47-5.58 69.7-3.95 71.95-3.95L71.95-3.95Q73.5-3.95 74.75-4.48 76-5 77.45-6.15L77.45-6.15 80-2.65Q76.5 0.75 71.6 0.75L71.6 0.75Q66.4 0.75 63.62-2.85 60.85-6.45 60.85-13L60.85-13Q60.85-19.55 63.5-23.35 66.15-27.15 71-27.15L71-27.15Q75.65-27.15 78.25-23.78 80.85-20.4 80.85-13.85L80.85-13.85ZM74.85-15.3L74.85-15.65Q74.85-19.4 73.95-21.13 73.05-22.85 71.05-22.85L71.05-22.85Q69.2-22.85 68.22-21.18 67.25-19.5 67.05-15.3L67.05-15.3 74.85-15.3ZM96.79-27.1Q97.94-27.1 98.84-26.75L98.84-26.75 97.84-20.85Q96.84-21.1 95.99-21.1L95.99-21.1Q94.09-21.1 92.99-19.45 91.89-17.8 91.29-14.55L91.29-14.55 91.29 0 85.14 0 85.14-26.45 90.49-26.45 90.94-21.85Q92.79-27.1 96.79-27.1L96.79-27.1ZM120.54-13.85Q120.54-13.4 120.39-11.3L120.39-11.3 106.74-11.3Q106.94-7.2 108.17-5.58 109.39-3.95 111.64-3.95L111.64-3.95Q113.19-3.95 114.44-4.48 115.69-5 117.14-6.15L117.14-6.15 119.69-2.65Q116.19 0.75 111.29 0.75L111.29 0.75Q106.09 0.75 103.32-2.85 100.54-6.45 100.54-13L100.54-13Q100.54-19.55 103.19-23.35 105.84-27.15 110.69-27.15L110.69-27.15Q115.34-27.15 117.94-23.78 120.54-20.4 120.54-13.85L120.54-13.85ZM114.54-15.3L114.54-15.65Q114.54-19.4 113.64-21.13 112.74-22.85 110.74-22.85L110.74-22.85Q108.89-22.85 107.92-21.18 106.94-19.5 106.74-15.3L106.74-15.3 114.54-15.3ZM160.89-34.55L163.09 0 157.04 0 156.44-14.6Q156.14-22.6 156.14-26L156.14-26 156.19-28.6 151.44-3.8 145.44-3.8 140.49-28.65Q140.54-27.15 140.54-24.05L140.54-24.05Q140.54-18.8 140.34-14.4L140.34-14.4 139.79 0 133.84 0 136.04-34.55 144.04-34.55 148.54-10.2 152.74-34.55 160.89-34.55ZM186.03-26.45L186.03 0 180.68 0 180.38-3.35Q179.13-1.3 177.58-0.28 176.03 0.75 173.98 0.75L173.98 0.75Q171.08 0.75 169.41-1.3 167.73-3.35 167.73-6.65L167.73-6.65 167.73-26.45 173.88-26.45 173.88-7Q173.88-3.9 175.98-3.9L175.98-3.9Q177.18-3.9 178.13-4.83 179.08-5.75 179.88-7.45L179.88-7.45 179.88-26.45 186.03-26.45ZM199.08-27.15Q203.78-27.15 207.03-24.05L207.03-24.05 204.68-20.7Q203.28-21.7 202.03-22.2 200.78-22.7 199.48-22.7L199.48-22.7Q198.03-22.7 197.21-21.93 196.38-21.15 196.38-19.8L196.38-19.8Q196.38-18.45 197.31-17.63 198.23-16.8 201.03-15.7L201.03-15.7Q204.48-14.35 206.13-12.5 207.78-10.65 207.78-7.55L207.78-7.55Q207.78-3.7 205.08-1.48 202.38 0.75 198.23 0.75L198.23 0.75Q195.53 0.75 193.26-0.23 190.98-1.2 189.28-2.95L189.28-2.95 192.28-6.25Q195.08-3.8 197.98-3.8L197.98-3.8Q199.63-3.8 200.58-4.67 201.53-5.55 201.53-7.1L201.53-7.1Q201.53-8.25 201.13-8.97 200.73-9.7 199.73-10.33 198.73-10.95 196.73-11.7L196.73-11.7Q193.28-13.05 191.81-14.85 190.33-16.65 190.33-19.45L190.33-19.45Q190.33-22.8 192.71-24.98 195.08-27.15 199.08-27.15L199.08-27.15ZM211.63-26.45L217.78-26.45 217.78 0 211.63 0 211.63-26.45ZM214.68-39.65Q216.33-39.65 217.35-38.6 218.38-37.55 218.38-35.9L218.38-35.9Q218.38-34.3 217.35-33.25 216.33-32.2 214.68-32.2L214.68-32.2Q213.03-32.2 212-33.25 210.98-34.3 210.98-35.9L210.98-35.9Q210.98-37.55 212-38.6 213.03-39.65 214.68-39.65L214.68-39.65ZM232.98-27.15Q235.13-27.15 236.88-26.43 238.63-25.7 240.23-24.15L240.23-24.15 237.58-20.65Q236.48-21.55 235.5-21.98 234.53-22.4 233.38-22.4L233.38-22.4Q231.13-22.4 229.98-20.28 228.83-18.15 228.83-13.1L228.83-13.1Q228.83-8.2 230-6.2 231.18-4.2 233.38-4.2L233.38-4.2Q234.48-4.2 235.38-4.6 236.28-5 237.48-5.85L237.48-5.85 240.23-2.3Q237.03 0.75 233.08 0.75L233.08 0.75Q227.98 0.75 225.15-2.73 222.33-6.2 222.33-13L222.33-13Q222.33-17.4 223.63-20.6 224.93-23.8 227.35-25.48 229.78-27.15 232.98-27.15L232.98-27.15ZM279.32-34.55L281.52 0 275.47 0 274.87-14.6Q274.57-22.6 274.57-26L274.57-26 274.62-28.6 269.87-3.8 263.87-3.8 258.92-28.65Q258.97-27.15 258.97-24.05L258.97-24.05Q258.97-18.8 258.77-14.4L258.77-14.4 258.22 0 252.27 0 254.47-34.55 262.47-34.55 266.97-10.2 271.17-34.55 279.32-34.55ZM305.17-13.85Q305.17-13.4 305.02-11.3L305.02-11.3 291.37-11.3Q291.57-7.2 292.79-5.58 294.02-3.95 296.27-3.95L296.27-3.95Q297.82-3.95 299.07-4.48 300.32-5 301.77-6.15L301.77-6.15 304.32-2.65Q300.82 0.75 295.92 0.75L295.92 0.75Q290.72 0.75 287.94-2.85 285.17-6.45 285.17-13L285.17-13Q285.17-19.55 287.82-23.35 290.47-27.15 295.32-27.15L295.32-27.15Q299.97-27.15 302.57-23.78 305.17-20.4 305.17-13.85L305.17-13.85ZM299.17-15.3L299.17-15.65Q299.17-19.4 298.27-21.13 297.37-22.85 295.37-22.85L295.37-22.85Q293.52-22.85 292.54-21.18 291.57-19.5 291.37-15.3L291.37-15.3 299.17-15.3ZM328.31-13.85Q328.31-13.4 328.17-11.3L328.17-11.3 314.51-11.3Q314.72-7.2 315.94-5.58 317.17-3.95 319.42-3.95L319.42-3.95Q320.97-3.95 322.22-4.48 323.47-5 324.92-6.15L324.92-6.15 327.47-2.65Q323.97 0.75 319.06 0.75L319.06 0.75Q313.87 0.75 311.09-2.85 308.31-6.45 308.31-13L308.31-13Q308.31-19.55 310.97-23.35 313.62-27.15 318.47-27.15L318.47-27.15Q323.12-27.15 325.72-23.78 328.31-20.4 328.31-13.85L328.31-13.85ZM322.31-15.3L322.31-15.65Q322.31-19.4 321.42-21.13 320.51-22.85 318.51-22.85L318.51-22.85Q316.67-22.85 315.69-21.18 314.72-19.5 314.51-15.3L314.51-15.3 322.31-15.3ZM343.76-5L345.91-1.2Q343.46 0.75 340.16 0.75L340.16 0.75Q336.71 0.75 334.91-1.23 333.11-3.2 333.11-6.6L333.11-6.6 333.11-22 330.01-22 330.01-26.45 333.11-26.45 333.11-32.3 339.26-33.05 339.26-26.45 344.26-26.45 343.66-22 339.26-22 339.26-6.6Q339.26-4.2 341.31-4.2L341.31-4.2Q341.96-4.2 342.46-4.38 342.96-4.55 343.76-5L343.76-5ZM355.81-27.15Q360.51-27.15 363.76-24.05L363.76-24.05 361.41-20.7Q360.01-21.7 358.76-22.2 357.51-22.7 356.21-22.7L356.21-22.7Q354.76-22.7 353.94-21.93 353.11-21.15 353.11-19.8L353.11-19.8Q353.11-18.45 354.04-17.63 354.96-16.8 357.76-15.7L357.76-15.7Q361.21-14.35 362.86-12.5 364.51-10.65 364.51-7.55L364.51-7.55Q364.51-3.7 361.81-1.48 359.11 0.75 354.96 0.75L354.96 0.75Q352.26 0.75 349.99-0.23 347.71-1.2 346.01-2.95L346.01-2.95 349.01-6.25Q351.81-3.8 354.71-3.8L354.71-3.8Q356.36-3.8 357.31-4.67 358.26-5.55 358.26-7.1L358.26-7.1Q358.26-8.25 357.86-8.97 357.46-9.7 356.46-10.33 355.46-10.95 353.46-11.7L353.46-11.7Q350.01-13.05 348.54-14.85 347.06-16.65 347.06-19.45L347.06-19.45Q347.06-22.8 349.44-24.98 351.81-27.15 355.81-27.15L355.81-27.15ZM384.71 0L378.36 0 378.36-34.55 395.06-34.55 394.36-29.8 384.71-29.8 384.71-19.25 393.11-19.25 393.11-14.5 384.71-14.5 384.71 0ZM410-27.1Q411.15-27.1 412.05-26.75L412.05-26.75 411.05-20.85Q410.05-21.1 409.2-21.1L409.2-21.1Q407.3-21.1 406.2-19.45 405.1-17.8 404.5-14.55L404.5-14.55 404.5 0 398.35 0 398.35-26.45 403.7-26.45 404.15-21.85Q406-27.1 410-27.1L410-27.1ZM433.75-13.85Q433.75-13.4 433.6-11.3L433.6-11.3 419.95-11.3Q420.15-7.2 421.38-5.58 422.6-3.95 424.85-3.95L424.85-3.95Q426.4-3.95 427.65-4.48 428.9-5 430.35-6.15L430.35-6.15 432.9-2.65Q429.4 0.75 424.5 0.75L424.5 0.75Q419.3 0.75 416.53-2.85 413.75-6.45 413.75-13L413.75-13Q413.75-19.55 416.4-23.35 419.05-27.15 423.9-27.15L423.9-27.15Q428.55-27.15 431.15-23.78 433.75-20.4 433.75-13.85L433.75-13.85ZM427.75-15.3L427.75-15.65Q427.75-19.4 426.85-21.13 425.95-22.85 423.95-22.85L423.95-22.85Q422.1-22.85 421.13-21.18 420.15-19.5 419.95-15.3L419.95-15.3 427.75-15.3ZM456.9-13.85Q456.9-13.4 456.75-11.3L456.75-11.3 443.1-11.3Q443.3-7.2 444.52-5.58 445.75-3.95 448-3.95L448-3.95Q449.55-3.95 450.8-4.48 452.05-5 453.5-6.15L453.5-6.15 456.05-2.65Q452.55 0.75 447.65 0.75L447.65 0.75Q442.45 0.75 439.67-2.85 436.9-6.45 436.9-13L436.9-13Q436.9-19.55 439.55-23.35 442.2-27.15 447.05-27.15L447.05-27.15Q451.7-27.15 454.3-23.78 456.9-20.4 456.9-13.85L456.9-13.85ZM450.9-15.3L450.9-15.65Q450.9-19.4 450-21.13 449.1-22.85 447.1-22.85L447.1-22.85Q445.25-22.85 444.27-21.18 443.3-19.5 443.1-15.3L443.1-15.3 450.9-15.3ZM474.14-37.7L480.29-37.05 480.29 0 474.84 0 474.54-3.05Q472.19 0.75 468.49 0.75L468.49 0.75Q464.39 0.75 462.22-2.93 460.04-6.6 460.04-13.2L460.04-13.2Q460.04-17.4 461.17-20.58 462.29-23.75 464.29-25.45 466.29-27.15 468.89-27.15L468.89-27.15Q472.09-27.15 474.14-24.5L474.14-24.5 474.14-37.7ZM470.24-3.9Q471.39-3.9 472.32-4.7 473.24-5.5 474.14-7L474.14-7 474.14-19.85Q472.54-22.55 470.49-22.55L470.49-22.55Q466.44-22.55 466.44-13.25L466.44-13.25Q466.44-8.2 467.44-6.05 468.44-3.9 470.24-3.9L470.24-3.9ZM495.39-27.15Q500.39-27.15 503.17-23.65 505.94-20.15 505.94-13.25L505.94-13.25Q505.94-6.65 503.14-2.95 500.34 0.75 495.39 0.75L495.39 0.75Q490.44 0.75 487.64-2.88 484.84-6.5 484.84-13.25L484.84-13.25Q484.84-19.95 487.64-23.55 490.44-27.15 495.39-27.15L495.39-27.15ZM495.39-22.5Q493.24-22.5 492.24-20.38 491.24-18.25 491.24-13.25L491.24-13.25Q491.24-8.2 492.24-6.08 493.24-3.95 495.39-3.95L495.39-3.95Q497.54-3.95 498.54-6.08 499.54-8.2 499.54-13.25L499.54-13.25Q499.54-18.3 498.54-20.4 497.54-22.5 495.39-22.5L495.39-22.5ZM534.14-27.15Q536.79-27.15 538.39-25.1 539.99-23.05 539.99-19.6L539.99-19.6 539.99 0 533.94 0 533.94-18.95Q533.94-20.85 533.44-21.68 532.94-22.5 531.99-22.5L531.99-22.5Q530.04-22.5 528.24-18.8L528.24-18.8 528.24 0 522.24 0 522.24-18.95Q522.24-22.5 520.34-22.5L520.34-22.5Q518.29-22.5 516.54-18.8L516.54-18.8 516.54 0 510.49 0 510.49-26.45 515.84-26.45 516.24-23.05Q518.84-27.15 522.49-27.15L522.49-27.15Q524.34-27.15 525.69-26 527.04-24.85 527.74-22.75L527.74-22.75Q530.39-27.15 534.14-27.15L534.14-27.15Z" opacity="1" transform="matrix(1,0,0,1,0,0)" fill="black" class="slogan-text-1" id="SvgjsPath4320"></path></svg></g></svg></g></svg></g></svg></g></svg></g></svg></g></svg></g><g><path d="M0 123.6c0-68.262 55.338-123.6 123.6-123.6 49.114 0 91.537 28.646 111.473 70.141l-3.02 0c-19.729-39.95-60.883-67.428-108.453-67.427-66.764 0-120.886 54.123-120.886 120.886 0 66.764 54.123 120.886 120.886 120.886 47.571 0 88.724-27.478 108.453-67.427h3.02c-19.936 41.495-62.359 70.141-111.473 70.141-68.262 0-123.6-55.338-123.6-123.6z" fill="black" stroke="transparent"></path></g></svg></g><defs><mask></mask></defs><mask><g id="SvgjsG4319"><svg viewBox="0 0 395.52 247.2" height="247.2" width="395.52"><g><svg></svg></g><g><svg viewBox="0 0 395.52 247.2" height="247.2" width="395.52"><g transform="matrix(1,0,0,1,75.54432,77.24612182395565)"><svg viewBox="0 0 244.43135999999998 92.7077563520887" height="92.7077563520887" width="244.43135999999998"><g><svg viewBox="0 0 244.43135999999998 92.7077563520887" height="92.7077563520887" width="244.43135999999998"><g><svg viewBox="0 0 244.43135999999998 92.7077563520887" height="92.7077563520887" width="244.43135999999998"><g><svg viewBox="0 0 244.43135999999998 92.7077563520887" height="92.7077563520887" width="244.43135999999998"><g id="SvgjsG4318"><svg viewBox="0 0 244.43135999999998 92.7077563520887" height="92.7077563520887" width="244.43135999999998" id="SvgjsSvg4317"><g><svg viewBox="0 0 244.43135999999998 60.1893659098177" height="60.1893659098177" width="244.43135999999998"><g transform="matrix(1,0,0,1,0,0)"><svg width="244.43135999999998" viewBox="2.55 -38 156.33999999999997 38.50000000000001" height="60.1893659098177" data-palette-color="url(#7554172d-4288-4e5f-96a5-b3d6bf4f67de)"><path d="M25.1-9.55L25.1-9.55Q25.1-6.35 23.55-4.13 22-1.9 19.13-0.7 16.25 0.5 12.35 0.5L12.35 0.5Q10.35 0.5 8.53 0.3 6.7 0.1 5.2-0.28 3.7-0.65 2.55-1.2L2.55-1.2 2.55-5.5Q4.35-4.7 7.03-4.05 9.7-3.4 12.55-3.4L12.55-3.4Q15.2-3.4 17-4.1 18.8-4.8 19.7-6.1 20.6-7.4 20.6-9.15L20.6-9.15Q20.6-10.9 19.85-12.1 19.1-13.3 17.28-14.33 15.45-15.35 12.2-16.5L12.2-16.5Q9.9-17.35 8.18-18.32 6.45-19.3 5.3-20.55 4.15-21.8 3.58-23.4 3-25 3-27.1L3-27.1Q3-29.95 4.45-31.98 5.9-34 8.47-35.1 11.05-36.2 14.4-36.2L14.4-36.2Q17.35-36.2 19.8-35.65 22.25-35.1 24.25-34.2L24.25-34.2 22.85-30.35Q21-31.15 18.82-31.7 16.65-32.25 14.3-32.25L14.3-32.25Q12.05-32.25 10.55-31.6 9.05-30.95 8.3-29.78 7.55-28.6 7.55-27.05L7.55-27.05Q7.55-25.25 8.3-24.05 9.05-22.85 10.75-21.9 12.45-20.95 15.35-19.85L15.35-19.85Q18.5-18.7 20.68-17.38 22.85-16.05 23.98-14.2 25.1-12.35 25.1-9.55ZM55-13.45L55-13.45Q55-10.1 54.12-7.53 53.25-4.95 51.62-3.15 50-1.35 47.67-0.43 45.35 0.5 42.5 0.5L42.5 0.5Q39.85 0.5 37.6-0.43 35.35-1.35 33.7-3.15 32.05-4.95 31.12-7.53 30.2-10.1 30.2-13.45L30.2-13.45Q30.2-17.9 31.7-20.98 33.2-24.05 36-25.68 38.8-27.3 42.65-27.3L42.65-27.3Q46.3-27.3 49.07-25.68 51.85-24.05 53.42-20.98 55-17.9 55-13.45ZM34.75-13.45L34.75-13.45Q34.75-10.3 35.57-7.98 36.4-5.65 38.15-4.4 39.9-3.15 42.6-3.15L42.6-3.15Q45.3-3.15 47.05-4.4 48.8-5.65 49.62-7.98 50.45-10.3 50.45-13.45L50.45-13.45Q50.45-16.65 49.6-18.9 48.75-21.15 47.02-22.38 45.3-23.6 42.55-23.6L42.55-23.6Q38.45-23.6 36.6-20.9 34.75-18.2 34.75-13.45ZM66.35-38L66.35 0 61.95 0 61.95-38 66.35-38ZM75.44-35.7L85.64-35.7Q92.34-35.7 95.77-33.73 99.19-31.75 99.19-26.85L99.19-26.85Q99.19-24.75 98.42-23.13 97.64-21.5 96.12-20.43 94.59-19.35 92.39-18.95L92.39-18.95 92.39-18.7Q94.64-18.35 96.47-17.4 98.29-16.45 99.34-14.7 100.39-12.95 100.39-10.15L100.39-10.15Q100.39-6.9 98.89-4.63 97.39-2.35 94.62-1.18 91.84 0 87.99 0L87.99 0 75.44 0 75.44-35.7ZM79.94-20.5L86.54-20.5Q91.14-20.5 92.84-21.98 94.54-23.45 94.54-26.35L94.54-26.35Q94.54-29.3 92.47-30.58 90.39-31.85 85.84-31.85L85.84-31.85 79.94-31.85 79.94-20.5ZM86.79-16.75L79.94-16.75 79.94-3.8 87.14-3.8Q91.89-3.8 93.74-5.65 95.59-7.5 95.59-10.5L95.59-10.5Q95.59-12.4 94.77-13.8 93.94-15.2 92.02-15.98 90.09-16.75 86.79-16.75L86.79-16.75ZM130.64-13.45L130.64-13.45Q130.64-10.1 129.77-7.53 128.89-4.95 127.27-3.15 125.64-1.35 123.32-0.43 120.99 0.5 118.14 0.5L118.14 0.5Q115.49 0.5 113.24-0.43 110.99-1.35 109.34-3.15 107.69-4.95 106.77-7.53 105.84-10.1 105.84-13.45L105.84-13.45Q105.84-17.9 107.34-20.98 108.84-24.05 111.64-25.68 114.44-27.3 118.29-27.3L118.29-27.3Q121.94-27.3 124.72-25.68 127.49-24.05 129.07-20.98 130.64-17.9 130.64-13.45ZM110.39-13.45L110.39-13.45Q110.39-10.3 111.22-7.98 112.04-5.65 113.79-4.4 115.54-3.15 118.24-3.15L118.24-3.15Q120.94-3.15 122.69-4.4 124.44-5.65 125.27-7.98 126.09-10.3 126.09-13.45L126.09-13.45Q126.09-16.65 125.24-18.9 124.39-21.15 122.67-22.38 120.94-23.6 118.19-23.6L118.19-23.6Q114.09-23.6 112.24-20.9 110.39-18.2 110.39-13.45ZM134.24 0L143.94-13.7 134.69-26.8 139.69-26.8 146.59-16.7 153.44-26.8 158.39-26.8 149.14-13.7 158.89 0 153.89 0 146.59-10.7 139.19 0 134.24 0Z" opacity="1" transform="matrix(1,0,0,1,0,0)" fill="black" class="wordmark-text-0" id="SvgjsPath4316"></path></svg></g></svg></g><g transform="matrix(1,0,0,1,0,74.39863065634383)"><svg viewBox="0 0 244.43135999999998 18.30912569574488" height="18.30912569574488" width="244.43135999999998"><g transform="matrix(1,0,0,1,0,0)"><svg width="244.43135999999998" viewBox="0.7 -39.65 539.29 40.4" height="18.30912569574488" data-palette-color="url(#a41715a2-0f36-42f4-a727-db7ca5e72a2d)"><path d="M28.5-34.55L34.4-34.55 29.55 0 21.2 0 17.5-27.8 13.65 0 5.45 0 0.7-34.55 6.85-34.55 10.05-5.1 14.2-34.55 20.95-34.55 25-5.1 28.5-34.55ZM50.3-27.15Q53.15-27.15 54.8-25.1 56.45-23.05 56.45-19.6L56.45-19.6 56.45 0 50.3 0 50.3-18.9Q50.3-20.8 49.77-21.63 49.25-22.45 48.25-22.45L48.25-22.45Q46.15-22.45 44.1-18.5L44.1-18.5 44.1 0 37.95 0 37.95-37 44.1-37.65 44.1-23.3Q45.35-25.25 46.82-26.2 48.3-27.15 50.3-27.15L50.3-27.15ZM80.85-13.85Q80.85-13.4 80.7-11.3L80.7-11.3 67.05-11.3Q67.25-7.2 68.47-5.58 69.7-3.95 71.95-3.95L71.95-3.95Q73.5-3.95 74.75-4.48 76-5 77.45-6.15L77.45-6.15 80-2.65Q76.5 0.75 71.6 0.75L71.6 0.75Q66.4 0.75 63.62-2.85 60.85-6.45 60.85-13L60.85-13Q60.85-19.55 63.5-23.35 66.15-27.15 71-27.15L71-27.15Q75.65-27.15 78.25-23.78 80.85-20.4 80.85-13.85L80.85-13.85ZM74.85-15.3L74.85-15.65Q74.85-19.4 73.95-21.13 73.05-22.85 71.05-22.85L71.05-22.85Q69.2-22.85 68.22-21.18 67.25-19.5 67.05-15.3L67.05-15.3 74.85-15.3ZM96.79-27.1Q97.94-27.1 98.84-26.75L98.84-26.75 97.84-20.85Q96.84-21.1 95.99-21.1L95.99-21.1Q94.09-21.1 92.99-19.45 91.89-17.8 91.29-14.55L91.29-14.55 91.29 0 85.14 0 85.14-26.45 90.49-26.45 90.94-21.85Q92.79-27.1 96.79-27.1L96.79-27.1ZM120.54-13.85Q120.54-13.4 120.39-11.3L120.39-11.3 106.74-11.3Q106.94-7.2 108.17-5.58 109.39-3.95 111.64-3.95L111.64-3.95Q113.19-3.95 114.44-4.48 115.69-5 117.14-6.15L117.14-6.15 119.69-2.65Q116.19 0.75 111.29 0.75L111.29 0.75Q106.09 0.75 103.32-2.85 100.54-6.45 100.54-13L100.54-13Q100.54-19.55 103.19-23.35 105.84-27.15 110.69-27.15L110.69-27.15Q115.34-27.15 117.94-23.78 120.54-20.4 120.54-13.85L120.54-13.85ZM114.54-15.3L114.54-15.65Q114.54-19.4 113.64-21.13 112.74-22.85 110.74-22.85L110.74-22.85Q108.89-22.85 107.92-21.18 106.94-19.5 106.74-15.3L106.74-15.3 114.54-15.3ZM160.89-34.55L163.09 0 157.04 0 156.44-14.6Q156.14-22.6 156.14-26L156.14-26 156.19-28.6 151.44-3.8 145.44-3.8 140.49-28.65Q140.54-27.15 140.54-24.05L140.54-24.05Q140.54-18.8 140.34-14.4L140.34-14.4 139.79 0 133.84 0 136.04-34.55 144.04-34.55 148.54-10.2 152.74-34.55 160.89-34.55ZM186.03-26.45L186.03 0 180.68 0 180.38-3.35Q179.13-1.3 177.58-0.28 176.03 0.75 173.98 0.75L173.98 0.75Q171.08 0.75 169.41-1.3 167.73-3.35 167.73-6.65L167.73-6.65 167.73-26.45 173.88-26.45 173.88-7Q173.88-3.9 175.98-3.9L175.98-3.9Q177.18-3.9 178.13-4.83 179.08-5.75 179.88-7.45L179.88-7.45 179.88-26.45 186.03-26.45ZM199.08-27.15Q203.78-27.15 207.03-24.05L207.03-24.05 204.68-20.7Q203.28-21.7 202.03-22.2 200.78-22.7 199.48-22.7L199.48-22.7Q198.03-22.7 197.21-21.93 196.38-21.15 196.38-19.8L196.38-19.8Q196.38-18.45 197.31-17.63 198.23-16.8 201.03-15.7L201.03-15.7Q204.48-14.35 206.13-12.5 207.78-10.65 207.78-7.55L207.78-7.55Q207.78-3.7 205.08-1.48 202.38 0.75 198.23 0.75L198.23 0.75Q195.53 0.75 193.26-0.23 190.98-1.2 189.28-2.95L189.28-2.95 192.28-6.25Q195.08-3.8 197.98-3.8L197.98-3.8Q199.63-3.8 200.58-4.67 201.53-5.55 201.53-7.1L201.53-7.1Q201.53-8.25 201.13-8.97 200.73-9.7 199.73-10.33 198.73-10.95 196.73-11.7L196.73-11.7Q193.28-13.05 191.81-14.85 190.33-16.65 190.33-19.45L190.33-19.45Q190.33-22.8 192.71-24.98 195.08-27.15 199.08-27.15L199.08-27.15ZM211.63-26.45L217.78-26.45 217.78 0 211.63 0 211.63-26.45ZM214.68-39.65Q216.33-39.65 217.35-38.6 218.38-37.55 218.38-35.9L218.38-35.9Q218.38-34.3 217.35-33.25 216.33-32.2 214.68-32.2L214.68-32.2Q213.03-32.2 212-33.25 210.98-34.3 210.98-35.9L210.98-35.9Q210.98-37.55 212-38.6 213.03-39.65 214.68-39.65L214.68-39.65ZM232.98-27.15Q235.13-27.15 236.88-26.43 238.63-25.7 240.23-24.15L240.23-24.15 237.58-20.65Q236.48-21.55 235.5-21.98 234.53-22.4 233.38-22.4L233.38-22.4Q231.13-22.4 229.98-20.28 228.83-18.15 228.83-13.1L228.83-13.1Q228.83-8.2 230-6.2 231.18-4.2 233.38-4.2L233.38-4.2Q234.48-4.2 235.38-4.6 236.28-5 237.48-5.85L237.48-5.85 240.23-2.3Q237.03 0.75 233.08 0.75L233.08 0.75Q227.98 0.75 225.15-2.73 222.33-6.2 222.33-13L222.33-13Q222.33-17.4 223.63-20.6 224.93-23.8 227.35-25.48 229.78-27.15 232.98-27.15L232.98-27.15ZM279.32-34.55L281.52 0 275.47 0 274.87-14.6Q274.57-22.6 274.57-26L274.57-26 274.62-28.6 269.87-3.8 263.87-3.8 258.92-28.65Q258.97-27.15 258.97-24.05L258.97-24.05Q258.97-18.8 258.77-14.4L258.77-14.4 258.22 0 252.27 0 254.47-34.55 262.47-34.55 266.97-10.2 271.17-34.55 279.32-34.55ZM305.17-13.85Q305.17-13.4 305.02-11.3L305.02-11.3 291.37-11.3Q291.57-7.2 292.79-5.58 294.02-3.95 296.27-3.95L296.27-3.95Q297.82-3.95 299.07-4.48 300.32-5 301.77-6.15L301.77-6.15 304.32-2.65Q300.82 0.75 295.92 0.75L295.92 0.75Q290.72 0.75 287.94-2.85 285.17-6.45 285.17-13L285.17-13Q285.17-19.55 287.82-23.35 290.47-27.15 295.32-27.15L295.32-27.15Q299.97-27.15 302.57-23.78 305.17-20.4 305.17-13.85L305.17-13.85ZM299.17-15.3L299.17-15.65Q299.17-19.4 298.27-21.13 297.37-22.85 295.37-22.85L295.37-22.85Q293.52-22.85 292.54-21.18 291.57-19.5 291.37-15.3L291.37-15.3 299.17-15.3ZM328.31-13.85Q328.31-13.4 328.17-11.3L328.17-11.3 314.51-11.3Q314.72-7.2 315.94-5.58 317.17-3.95 319.42-3.95L319.42-3.95Q320.97-3.95 322.22-4.48 323.47-5 324.92-6.15L324.92-6.15 327.47-2.65Q323.97 0.75 319.06 0.75L319.06 0.75Q313.87 0.75 311.09-2.85 308.31-6.45 308.31-13L308.31-13Q308.31-19.55 310.97-23.35 313.62-27.15 318.47-27.15L318.47-27.15Q323.12-27.15 325.72-23.78 328.31-20.4 328.31-13.85L328.31-13.85ZM322.31-15.3L322.31-15.65Q322.31-19.4 321.42-21.13 320.51-22.85 318.51-22.85L318.51-22.85Q316.67-22.85 315.69-21.18 314.72-19.5 314.51-15.3L314.51-15.3 322.31-15.3ZM343.76-5L345.91-1.2Q343.46 0.75 340.16 0.75L340.16 0.75Q336.71 0.75 334.91-1.23 333.11-3.2 333.11-6.6L333.11-6.6 333.11-22 330.01-22 330.01-26.45 333.11-26.45 333.11-32.3 339.26-33.05 339.26-26.45 344.26-26.45 343.66-22 339.26-22 339.26-6.6Q339.26-4.2 341.31-4.2L341.31-4.2Q341.96-4.2 342.46-4.38 342.96-4.55 343.76-5L343.76-5ZM355.81-27.15Q360.51-27.15 363.76-24.05L363.76-24.05 361.41-20.7Q360.01-21.7 358.76-22.2 357.51-22.7 356.21-22.7L356.21-22.7Q354.76-22.7 353.94-21.93 353.11-21.15 353.11-19.8L353.11-19.8Q353.11-18.45 354.04-17.63 354.96-16.8 357.76-15.7L357.76-15.7Q361.21-14.35 362.86-12.5 364.51-10.65 364.51-7.55L364.51-7.55Q364.51-3.7 361.81-1.48 359.11 0.75 354.96 0.75L354.96 0.75Q352.26 0.75 349.99-0.23 347.71-1.2 346.01-2.95L346.01-2.95 349.01-6.25Q351.81-3.8 354.71-3.8L354.71-3.8Q356.36-3.8 357.31-4.67 358.26-5.55 358.26-7.1L358.26-7.1Q358.26-8.25 357.86-8.97 357.46-9.7 356.46-10.33 355.46-10.95 353.46-11.7L353.46-11.7Q350.01-13.05 348.54-14.85 347.06-16.65 347.06-19.45L347.06-19.45Q347.06-22.8 349.44-24.98 351.81-27.15 355.81-27.15L355.81-27.15ZM384.71 0L378.36 0 378.36-34.55 395.06-34.55 394.36-29.8 384.71-29.8 384.71-19.25 393.11-19.25 393.11-14.5 384.71-14.5 384.71 0ZM410-27.1Q411.15-27.1 412.05-26.75L412.05-26.75 411.05-20.85Q410.05-21.1 409.2-21.1L409.2-21.1Q407.3-21.1 406.2-19.45 405.1-17.8 404.5-14.55L404.5-14.55 404.5 0 398.35 0 398.35-26.45 403.7-26.45 404.15-21.85Q406-27.1 410-27.1L410-27.1ZM433.75-13.85Q433.75-13.4 433.6-11.3L433.6-11.3 419.95-11.3Q420.15-7.2 421.38-5.58 422.6-3.95 424.85-3.95L424.85-3.95Q426.4-3.95 427.65-4.48 428.9-5 430.35-6.15L430.35-6.15 432.9-2.65Q429.4 0.75 424.5 0.75L424.5 0.75Q419.3 0.75 416.53-2.85 413.75-6.45 413.75-13L413.75-13Q413.75-19.55 416.4-23.35 419.05-27.15 423.9-27.15L423.9-27.15Q428.55-27.15 431.15-23.78 433.75-20.4 433.75-13.85L433.75-13.85ZM427.75-15.3L427.75-15.65Q427.75-19.4 426.85-21.13 425.95-22.85 423.95-22.85L423.95-22.85Q422.1-22.85 421.13-21.18 420.15-19.5 419.95-15.3L419.95-15.3 427.75-15.3ZM456.9-13.85Q456.9-13.4 456.75-11.3L456.75-11.3 443.1-11.3Q443.3-7.2 444.52-5.58 445.75-3.95 448-3.95L448-3.95Q449.55-3.95 450.8-4.48 452.05-5 453.5-6.15L453.5-6.15 456.05-2.65Q452.55 0.75 447.65 0.75L447.65 0.75Q442.45 0.75 439.67-2.85 436.9-6.45 436.9-13L436.9-13Q436.9-19.55 439.55-23.35 442.2-27.15 447.05-27.15L447.05-27.15Q451.7-27.15 454.3-23.78 456.9-20.4 456.9-13.85L456.9-13.85ZM450.9-15.3L450.9-15.65Q450.9-19.4 450-21.13 449.1-22.85 447.1-22.85L447.1-22.85Q445.25-22.85 444.27-21.18 443.3-19.5 443.1-15.3L443.1-15.3 450.9-15.3ZM474.14-37.7L480.29-37.05 480.29 0 474.84 0 474.54-3.05Q472.19 0.75 468.49 0.75L468.49 0.75Q464.39 0.75 462.22-2.93 460.04-6.6 460.04-13.2L460.04-13.2Q460.04-17.4 461.17-20.58 462.29-23.75 464.29-25.45 466.29-27.15 468.89-27.15L468.89-27.15Q472.09-27.15 474.14-24.5L474.14-24.5 474.14-37.7ZM470.24-3.9Q471.39-3.9 472.32-4.7 473.24-5.5 474.14-7L474.14-7 474.14-19.85Q472.54-22.55 470.49-22.55L470.49-22.55Q466.44-22.55 466.44-13.25L466.44-13.25Q466.44-8.2 467.44-6.05 468.44-3.9 470.24-3.9L470.24-3.9ZM495.39-27.15Q500.39-27.15 503.17-23.65 505.94-20.15 505.94-13.25L505.94-13.25Q505.94-6.65 503.14-2.95 500.34 0.75 495.39 0.75L495.39 0.75Q490.44 0.75 487.64-2.88 484.84-6.5 484.84-13.25L484.84-13.25Q484.84-19.95 487.64-23.55 490.44-27.15 495.39-27.15L495.39-27.15ZM495.39-22.5Q493.24-22.5 492.24-20.38 491.24-18.25 491.24-13.25L491.24-13.25Q491.24-8.2 492.24-6.08 493.24-3.95 495.39-3.95L495.39-3.95Q497.54-3.95 498.54-6.08 499.54-8.2 499.54-13.25L499.54-13.25Q499.54-18.3 498.54-20.4 497.54-22.5 495.39-22.5L495.39-22.5ZM534.14-27.15Q536.79-27.15 538.39-25.1 539.99-23.05 539.99-19.6L539.99-19.6 539.99 0 533.94 0 533.94-18.95Q533.94-20.85 533.44-21.68 532.94-22.5 531.99-22.5L531.99-22.5Q530.04-22.5 528.24-18.8L528.24-18.8 528.24 0 522.24 0 522.24-18.95Q522.24-22.5 520.34-22.5L520.34-22.5Q518.29-22.5 516.54-18.8L516.54-18.8 516.54 0 510.49 0 510.49-26.45 515.84-26.45 516.24-23.05Q518.84-27.15 522.49-27.15L522.49-27.15Q524.34-27.15 525.69-26 527.04-24.85 527.74-22.75L527.74-22.75Q530.39-27.15 534.14-27.15L534.14-27.15Z" opacity="1" transform="matrix(1,0,0,1,0,0)" fill="black" class="slogan-text-1" id="SvgjsPath4315"></path></svg></g></svg></g></svg></g></svg></g></svg></g></svg></g></svg></g><g><path d="M0 123.6c0-68.262 55.338-123.6 123.6-123.6 49.114 0 91.537 28.646 111.473 70.141l-3.02 0c-19.729-39.95-60.883-67.428-108.453-67.427-66.764 0-120.886 54.123-120.886 120.886 0 66.764 54.123 120.886 120.886 120.886 47.571 0 88.724-27.478 108.453-67.427h3.02c-19.936 41.495-62.359 70.141-111.473 70.141-68.262 0-123.6-55.338-123.6-123.6z" fill="black" stroke="transparent"></path></g></svg></g><defs><mask></mask></defs></svg><rect width="395.52" height="247.2" fill="black" stroke="none" visibility="hidden"></rect></g></mask></svg><rect width="395.52" height="247.2" fill="black" stroke="none" visibility="hidden"></rect></g></mask></svg><rect width="395.52" height="247.2" fill="black" stroke="none" visibility="hidden"></rect></g></mask><linearGradient x1="0" x2="1" y1="0.5" y2="0.5" id="8477ce52-bf2a-439e-848f-12c03232d335"><stop stop-color="#f00b51" offset="0"></stop><stop stop-color="#730062" offset="1"></stop></linearGradient></svg><rect width="395.52" height="247.2" fill="none" stroke="none" visibility="hidden"></rect></g></svg></g></svg>